  0
SECTION
  2
HEADER
  9
$ACADVER
  1
AC1014
  9
$HANDSEED
  5
FFFF
  9
$MEASUREMENT
 70
     1
  0
ENDSEC
  0
SECTION
  2
TABLES
  0
TABLE
  2
VPORT
  5
8
330
0
100
AcDbSymbolTable
 70
     4
  0
VPORT
  5
2E
330
8
100
AcDbSymbolTableRecord
100
AcDbViewportTableRecord
  2
*ACTIVE
 70
     0
 10
0.0
 20
0.0
 11
1.0
 21
1.0
 12
210.0
 22
148.5
 13
0.0
 23
0.0
 14
10.0
 24
10.0
 15
10.0
 25
10.0
 16
0.0
 26
0.0
 36
1.0
 17
0.0
 27
0.0
 37
0.0
 40
341.0
 41
1.24
 42
50.0
 43
0.0
 44
0.0
 50
0.0
 51
0.0
 71
     0
 72
   100
 73
     1
 74
     3
 75
     0
 76
     0
 77
     0
 78
     0
  0
ENDTAB
  0
TABLE
  2
LTYPE
  5
5
330
0
100
AcDbSymbolTable
 70
     1
  0
LTYPE
  5
14
330
5
100
AcDbSymbolTableRecord
100
AcDbLinetypeTableRecord
  2
BYBLOCK
 70
     0
  3

 72
    65
 73
     0
 40
0.0
  0
LTYPE
  5
15
330
5
100
AcDbSymbolTableRecord
100
AcDbLinetypeTableRecord
  2
BYLAYER
 70
     0
  3

 72
    65
 73
     0
 40
0.0
  0
LTYPE
  5
16
330
5
100
AcDbSymbolTableRecord
100
AcDbLinetypeTableRecord
  2
CONTINUOUS
 70
     0
  3
Solid line
 72
    65
 73
     0
 40
0.0
  0
ENDTAB
  0
TABLE
  2
LAYER
  5
2
100
AcDbSymbolTable
 70
2
  0
LAYER
  5
50
100
AcDbSymbolTableRecord
100
AcDbLayerTableRecord
  2
0
 70
0
  6
CONTINUOUS
  0
LAYER
  5
51
100
AcDbSymbolTableRecord
100
AcDbLayerTableRecord
  2
Layer_1
 70
0
  6
CONTINUOUS
  0
ENDTAB
  0
TABLE
  2
STYLE
  5
3
330
0
100
AcDbSymbolTable
 70
     1
  0
STYLE
  5
11
330
3
100
AcDbSymbolTableRecord
100
AcDbTextStyleTableRecord
  2
STANDARD
 70
     0
 40
0.0
 41
1.0
 50
0.0
 71
     0
 42
2.5
  3
txt
  4

  0
ENDTAB
  0
TABLE
  2
VIEW
  5
6
330
0
100
AcDbSymbolTable
 70
     0
  0
ENDTAB
  0
TABLE
  2
UCS
  5
7
330
0
100
AcDbSymbolTable
 70
     0
  0
ENDTAB
  0
TABLE
  2
APPID
  5
9
330
0
100
AcDbSymbolTable
 70
     2
  0
APPID
  5
12
330
9
100
AcDbSymbolTableRecord
100
AcDbRegAppTableRecord
  2
ACAD
 70
     0
  0
ENDTAB
  0
TABLE
  2
DIMSTYLE
  5
A
330
0
100
AcDbSymbolTable
 70
     1
  0
DIMSTYLE
105
27
330
A
100
AcDbSymbolTableRecord
100
AcDbDimStyleTableRecord
  2
ISO-25
 70
     0
  3

  4

  5

  6

  7

 40
1.0
 41
2.5
 42
0.625
 43
3.75
 44
1.25
 45
0.0
 46
0.0
 47
0.0
 48
0.0
140
2.5
141
2.5
142
0.0
143
0.03937007874016
144
1.0
145
0.0
146
1.0
147
0.625
 71
     0
 72
     0
 73
     0
 74
     0
 75
     0
 76
     0
 77
     1
 78
     8
170
     0
171
     3
172
     1
173
     0
174
     0
175
     0
176
     0
177
     0
178
     0
270
     2
271
     2
272
     2
273
     2
274
     3
340
11
275
     0
280
     0
281
     0
282
     0
283
     0
284
     8
285
     0
286
     0
287
     3
288
     0
  0
ENDTAB
  0
TABLE
  2
BLOCK_RECORD
  5
1
330
0
100
AcDbSymbolTable
 70
     1
  0
BLOCK_RECORD
  5
1F
330
1
100
AcDbSymbolTableRecord
100
AcDbBlockTableRecord
  2
*MODEL_SPACE
  0
BLOCK_RECORD
  5
1B
330
1
100
AcDbSymbolTableRecord
100
AcDbBlockTableRecord
  2
*PAPER_SPACE
  0
ENDTAB
  0
ENDSEC
  0
SECTION
  2
BLOCKS
  0
BLOCK
  5
20
330
1F
100
AcDbEntity
  8
0
100
AcDbBlockBegin
  2
*MODEL_SPACE
 70
     0
 10
0.0
 20
0.0
 30
0.0
  3
*MODEL_SPACE
  1

  0
ENDBLK
  5
21
330
1F
100
AcDbEntity
  8
0
100
AcDbBlockEnd
  0
BLOCK
  5
1C
330
1B
100
AcDbEntity
 67
     1
  8
0
100
AcDbBlockBegin
  2
*PAPER_SPACE
  1

  0
ENDBLK
  5
1D
330
1B
100
AcDbEntity
 67
     1
  8
0
100
AcDbBlockEnd
  0
ENDSEC
  0
SECTION
  2
ENTITIES
  0
SPLINE
  5
100
100
AcDbEntity
  8
Layer_1
 62
5
100
AcDbSpline
 70
8
 71
3
 72
8
 73
4
 74
0
 40
0
 40
0
 40
0
 40
0
 40
1
 40
1
 40
1
 40
1
 10
182.020140
 20
177.950834
 30
0.0
 10
180.915593
 20
177.950834
 30
0.0
 10
180.020243
 20
178.846184
 30
0.0
 10
180.020243
 20
179.951084
 30
0.0
  0
SPLINE
  5
101
100
AcDbEntity
  8
Layer_1
 62
5
100
AcDbSpline
 70
8
 71
3
 72
8
 73
4
 74
0
 40
0
 40
0
 40
0
 40
0
 40
1
 40
1
 40
1
 40
1
 10
180.020243
 20
179.951084
 30
0.0
 10
180.020243
 20
181.055631
 30
0.0
 10
180.915593
 20
181.950981
 30
0.0
 10
182.020140
 20
181.950981
 30
0.0
  0
SPLINE
  5
102
100
AcDbEntity
  8
Layer_1
 62
5
100
AcDbSpline
 70
8
 71
3
 72
8
 73
4
 74
0
 40
0
 40
0
 40
0
 40
0
 40
1
 40
1
 40
1
 40
1
 10
182.020140
 20
181.950981
 30
0.0
 10
183.124687
 20
181.950981
 30
0.0
 10
184.020037
 20
181.055631
 30
0.0
 10
184.020037
 20
179.951084
 30
0.0
  0
SPLINE
  5
103
100
AcDbEntity
  8
Layer_1
 62
5
100
AcDbSpline
 70
8
 71
3
 72
8
 73
4
 74
0
 40
0
 40
0
 40
0
 40
0
 40
1
 40
1
 40
1
 40
1
 10
184.020037
 20
179.951084
 30
0.0
 10
184.020037
 20
178.846184
 30
0.0
 10
183.124687
 20
177.950834
 30
0.0
 10
182.020140
 20
177.950834
 30
0.0
  0
LINE
  5
104
100
AcDbEntity
  8
Layer_1
 62
5
100
AcDbLine
 10
182.020140
 20
177.950834
 30
0.0
 11
182.020140
 21
177.950834
 31
0.0
  0
SPLINE
  5
105
100
AcDbEntity
  8
Layer_1
 62
5
100
AcDbSpline
 70
8
 71
3
 72
8
 73
4
 74
0
 40
0
 40
0
 40
0
 40
0
 40
1
 40
1
 40
1
 40
1
 10
182.020140
 20
107.950265
 30
0.0
 10
180.915593
 20
107.950265
 30
0.0
 10
180.020243
 20
108.845618
 30
0.0
 10
180.020243
 20
109.950515
 30
0.0
  0
SPLINE
  5
106
100
AcDbEntity
  8
Layer_1
 62
5
100
AcDbSpline
 70
8
 71
3
 72
8
 73
4
 74
0
 40
0
 40
0
 40
0
 40
0
 40
1
 40
1
 40
1
 40
1
 10
180.020243
 20
109.950515
 30
0.0
 10
180.020243
 20
111.055062
 30
0.0
 10
180.915593
 20
111.950412
 30
0.0
 10
182.020140
 20
111.950412
 30
0.0
  0
SPLINE
  5
107
100
AcDbEntity
  8
Layer_1
 62
5
100
AcDbSpline
 70
8
 71
3
 72
8
 73
4
 74
0
 40
0
 40
0
 40
0
 40
0
 40
1
 40
1
 40
1
 40
1
 10
182.020140
 20
111.950412
 30
0.0
 10
183.124687
 20
111.950412
 30
0.0
 10
184.020037
 20
111.055062
 30
0.0
 10
184.020037
 20
109.950515
 30
0.0
  0
SPLINE
  5
108
100
AcDbEntity
  8
Layer_1
 62
5
100
AcDbSpline
 70
8
 71
3
 72
8
 73
4
 74
0
 40
0
 40
0
 40
0
 40
0
 40
1
 40
1
 40
1
 40
1
 10
184.020037
 20
109.950515
 30
0.0
 10
184.020037
 20
108.845618
 30
0.0
 10
183.124687
 20
107.950265
 30
0.0
 10
182.020140
 20
107.950265
 30
0.0
  0
LINE
  5
109
100
AcDbEntity
  8
Layer_1
 62
5
100
AcDbLine
 10
182.020140
 20
107.950265
 30
0.0
 11
182.020140
 21
107.950265
 31
0.0
  0
SPLINE
  5
10a
100
AcDbEntity
  8
Layer_1
 62
5
100
AcDbSpline
 70
8
 71
3
 72
8
 73
4
 74
0
 40
0
 40
0
 40
0
 40
0
 40
1
 40
1
 40
1
 40
1
 10
115.019029
 20
107.950799
 30
0.0
 10
113.914482
 20
107.950799
 30
0.0
 10
113.019132
 20
108.846149
 30
0.0
 10
113.019132
 20
109.951049
 30
0.0
  0
SPLINE
  5
10b
100
AcDbEntity
  8
Layer_1
 62
5
100
AcDbSpline
 70
8
 71
3
 72
8
 73
4
 74
0
 40
0
 40
0
 40
0
 40
0
 40
1
 40
1
 40
1
 40
1
 10
113.019132
 20
109.951049
 30
0.0
 10
113.019132
 20
111.055596
 30
0.0
 10
113.914482
 20
111.950946
 30
0.0
 10
115.019029
 20
111.950946
 30
0.0
  0
SPLINE
  5
10c
100
AcDbEntity
  8
Layer_1
 62
5
100
AcDbSpline
 70
8
 71
3
 72
8
 73
4
 74
0
 40
0
 40
0
 40
0
 40
0
 40
1
 40
1
 40
1
 40
1
 10
115.019029
 20
111.950946
 30
0.0
 10
116.123577
 20
111.950946
 30
0.0
 10
117.019279
 20
111.055596
 30
0.0
 10
117.019279
 20
109.951049
 30
0.0
  0
SPLINE
  5
10d
100
AcDbEntity
  8
Layer_1
 62
5
100
AcDbSpline
 70
8
 71
3
 72
8
 73
4
 74
0
 40
0
 40
0
 40
0
 40
0
 40
1
 40
1
 40
1
 40
1
 10
117.019279
 20
109.951049
 30
0.0
 10
117.019279
 20
108.846149
 30
0.0
 10
116.123577
 20
107.950799
 30
0.0
 10
115.019029
 20
107.950799
 30
0.0
  0
LINE
  5
10e
100
AcDbEntity
  8
Layer_1
 62
5
100
AcDbLine
 10
115.019029
 20
107.950799
 30
0.0
 11
115.019029
 21
107.950799
 31
0.0
  0
SPLINE
  5
10f
100
AcDbEntity
  8
Layer_1
 62
5
100
AcDbSpline
 70
8
 71
3
 72
8
 73
4
 74
0
 40
0
 40
0
 40
0
 40
0
 40
1
 40
1
 40
1
 40
1
 10
115.019029
 20
177.951364
 30
0.0
 10
113.914482
 20
177.951364
 30
0.0
 10
113.019132
 20
178.846714
 30
0.0
 10
113.019132
 20
179.951614
 30
0.0
  0
SPLINE
  5
110
100
AcDbEntity
  8
Layer_1
 62
5
100
AcDbSpline
 70
8
 71
3
 72
8
 73
4
 74
0
 40
0
 40
0
 40
0
 40
0
 40
1
 40
1
 40
1
 40
1
 10
113.019132
 20
179.951614
 30
0.0
 10
113.019132
 20
181.056159
 30
0.0
 10
113.914482
 20
181.951509
 30
0.0
 10
115.019029
 20
181.951509
 30
0.0
  0
SPLINE
  5
111
100
AcDbEntity
  8
Layer_1
 62
5
100
AcDbSpline
 70
8
 71
3
 72
8
 73
4
 74
0
 40
0
 40
0
 40
0
 40
0
 40
1
 40
1
 40
1
 40
1
 10
115.019029
 20
181.951509
 30
0.0
 10
116.123577
 20
181.951509
 30
0.0
 10
117.019279
 20
181.056159
 30
0.0
 10
117.019279
 20
179.951614
 30
0.0
  0
SPLINE
  5
112
100
AcDbEntity
  8
Layer_1
 62
5
100
AcDbSpline
 70
8
 71
3
 72
8
 73
4
 74
0
 40
0
 40
0
 40
0
 40
0
 40
1
 40
1
 40
1
 40
1
 10
117.019279
 20
179.951614
 30
0.0
 10
117.019279
 20
178.846714
 30
0.0
 10
116.123577
 20
177.951364
 30
0.0
 10
115.019029
 20
177.951364
 30
0.0
  0
LINE
  5
113
100
AcDbEntity
  8
Layer_1
 62
5
100
AcDbLine
 10
115.019029
 20
177.951364
 30
0.0
 11
115.019029
 21
177.951364
 31
0.0
  0
SPLINE
  5
114
100
AcDbEntity
  8
Layer_1
 62
5
100
AcDbSpline
 70
8
 71
3
 72
8
 73
4
 74
0
 40
0
 40
0
 40
0
 40
0
 40
1
 40
1
 40
1
 40
1
 10
120.214941
 20
196.713864
 30
0.0
 10
120.214941
 20
195.885438
 30
0.0
 10
119.543371
 20
195.213865
 30
0.0
 10
118.714941
 20
195.213865
 30
0.0
  0
SPLINE
  5
115
100
AcDbEntity
  8
Layer_1
 62
5
100
AcDbSpline
 70
8
 71
3
 72
8
 73
4
 74
0
 40
0
 40
0
 40
0
 40
0
 40
1
 40
1
 40
1
 40
1
 10
118.714941
 20
195.213865
 30
0.0
 10
117.886517
 20
195.213865
 30
0.0
 10
117.214941
 20
195.885438
 30
0.0
 10
117.214941
 20
196.713864
 30
0.0
  0
SPLINE
  5
116
100
AcDbEntity
  8
Layer_1
 62
5
100
AcDbSpline
 70
8
 71
3
 72
8
 73
4
 74
0
 40
0
 40
0
 40
0
 40
0
 40
1
 40
1
 40
1
 40
1
 10
117.214941
 20
196.713864
 30
0.0
 10
117.214941
 20
197.542294
 30
0.0
 10
117.886517
 20
198.213861
 30
0.0
 10
118.714941
 20
198.213861
 30
0.0
  0
SPLINE
  5
117
100
AcDbEntity
  8
Layer_1
 62
5
100
AcDbSpline
 70
8
 71
3
 72
8
 73
4
 74
0
 40
0
 40
0
 40
0
 40
0
 40
1
 40
1
 40
1
 40
1
 10
118.714941
 20
198.213861
 30
0.0
 10
119.543371
 20
198.213861
 30
0.0
 10
120.214941
 20
197.542294
 30
0.0
 10
120.214941
 20
196.713864
 30
0.0
  0
LINE
  5
118
100
AcDbEntity
  8
Layer_1
 62
5
100
AcDbLine
 10
120.214941
 20
196.713864
 30
0.0
 11
120.214941
 21
196.713864
 31
0.0
  0
SPLINE
  5
119
100
AcDbEntity
  8
Layer_1
 62
5
100
AcDbSpline
 70
8
 71
3
 72
8
 73
4
 74
0
 40
0
 40
0
 40
0
 40
0
 40
1
 40
1
 40
1
 40
1
 10
179.791155
 20
196.713862
 30
0.0
 10
179.791155
 20
195.885435
 30
0.0
 10
179.119584
 20
195.213865
 30
0.0
 10
178.291155
 20
195.213865
 30
0.0
  0
SPLINE
  5
11a
100
AcDbEntity
  8
Layer_1
 62
5
100
AcDbSpline
 70
8
 71
3
 72
8
 73
4
 74
0
 40
0
 40
0
 40
0
 40
0
 40
1
 40
1
 40
1
 40
1
 10
178.291155
 20
195.213865
 30
0.0
 10
177.462731
 20
195.213865
 30
0.0
 10
176.791155
 20
195.885435
 30
0.0
 10
176.791155
 20
196.713862
 30
0.0
  0
SPLINE
  5
11b
100
AcDbEntity
  8
Layer_1
 62
5
100
AcDbSpline
 70
8
 71
3
 72
8
 73
4
 74
0
 40
0
 40
0
 40
0
 40
0
 40
1
 40
1
 40
1
 40
1
 10
176.791155
 20
196.713862
 30
0.0
 10
176.791155
 20
197.542291
 30
0.0
 10
177.462731
 20
198.213859
 30
0.0
 10
178.291155
 20
198.213859
 30
0.0
  0
SPLINE
  5
11c
100
AcDbEntity
  8
Layer_1
 62
5
100
AcDbSpline
 70
8
 71
3
 72
8
 73
4
 74
0
 40
0
 40
0
 40
0
 40
0
 40
1
 40
1
 40
1
 40
1
 10
178.291155
 20
198.213859
 30
0.0
 10
179.119584
 20
198.213859
 30
0.0
 10
179.791155
 20
197.542291
 30
0.0
 10
179.791155
 20
196.713862
 30
0.0
  0
LINE
  5
11d
100
AcDbEntity
  8
Layer_1
 62
5
100
AcDbLine
 10
179.791155
 20
196.713862
 30
0.0
 11
179.791155
 21
196.713862
 31
0.0
  0
SPLINE
  5
11e
100
AcDbEntity
  8
Layer_1
 62
5
100
AcDbSpline
 70
8
 71
3
 72
8
 73
4
 74
0
 40
0
 40
0
 40
0
 40
0
 40
1
 40
1
 40
1
 40
1
 10
179.714940
 20
93.213863
 30
0.0
 10
179.714940
 20
92.385436
 30
0.0
 10
179.043370
 20
91.713866
 30
0.0
 10
178.214941
 20
91.713866
 30
0.0
  0
SPLINE
  5
11f
100
AcDbEntity
  8
Layer_1
 62
5
100
AcDbSpline
 70
8
 71
3
 72
8
 73
4
 74
0
 40
0
 40
0
 40
0
 40
0
 40
1
 40
1
 40
1
 40
1
 10
178.214941
 20
91.713866
 30
0.0
 10
177.386517
 20
91.713866
 30
0.0
 10
176.714941
 20
92.385436
 30
0.0
 10
176.714941
 20
93.213863
 30
0.0
  0
SPLINE
  5
120
100
AcDbEntity
  8
Layer_1
 62
5
100
AcDbSpline
 70
8
 71
3
 72
8
 73
4
 74
0
 40
0
 40
0
 40
0
 40
0
 40
1
 40
1
 40
1
 40
1
 10
176.714941
 20
93.213863
 30
0.0
 10
176.714941
 20
94.042292
 30
0.0
 10
177.386517
 20
94.713860
 30
0.0
 10
178.214941
 20
94.713860
 30
0.0
  0
SPLINE
  5
121
100
AcDbEntity
  8
Layer_1
 62
5
100
AcDbSpline
 70
8
 71
3
 72
8
 73
4
 74
0
 40
0
 40
0
 40
0
 40
0
 40
1
 40
1
 40
1
 40
1
 10
178.214941
 20
94.713860
 30
0.0
 10
179.043370
 20
94.713860
 30
0.0
 10
179.714940
 20
94.042292
 30
0.0
 10
179.714940
 20
93.213863
 30
0.0
  0
LINE
  5
122
100
AcDbEntity
  8
Layer_1
 62
5
100
AcDbLine
 10
179.714940
 20
93.213863
 30
0.0
 11
179.714940
 21
93.213863
 31
0.0
  0
SPLINE
  5
123
100
AcDbEntity
  8
Layer_1
 62
5
100
AcDbSpline
 70
8
 71
3
 72
8
 73
4
 74
0
 40
0
 40
0
 40
0
 40
0
 40
1
 40
1
 40
1
 40
1
 10
120.214949
 20
93.213865
 30
0.0
 10
120.214949
 20
92.385439
 30
0.0
 10
119.543379
 20
91.713866
 30
0.0
 10
118.714950
 20
91.713866
 30
0.0
  0
SPLINE
  5
124
100
AcDbEntity
  8
Layer_1
 62
5
100
AcDbSpline
 70
8
 71
3
 72
8
 73
4
 74
0
 40
0
 40
0
 40
0
 40
0
 40
1
 40
1
 40
1
 40
1
 10
118.714950
 20
91.713866
 30
0.0
 10
117.886526
 20
91.713866
 30
0.0
 10
117.214950
 20
92.385439
 30
0.0
 10
117.214950
 20
93.213865
 30
0.0
  0
SPLINE
  5
125
100
AcDbEntity
  8
Layer_1
 62
5
100
AcDbSpline
 70
8
 71
3
 72
8
 73
4
 74
0
 40
0
 40
0
 40
0
 40
0
 40
1
 40
1
 40
1
 40
1
 10
117.214950
 20
93.213865
 30
0.0
 10
117.214950
 20
94.042295
 30
0.0
 10
117.886526
 20
94.713865
 30
0.0
 10
118.714950
 20
94.713865
 30
0.0
  0
SPLINE
  5
126
100
AcDbEntity
  8
Layer_1
 62
5
100
AcDbSpline
 70
8
 71
3
 72
8
 73
4
 74
0
 40
0
 40
0
 40
0
 40
0
 40
1
 40
1
 40
1
 40
1
 10
118.714950
 20
94.713865
 30
0.0
 10
119.543379
 20
94.713865
 30
0.0
 10
120.214949
 20
94.042295
 30
0.0
 10
120.214949
 20
93.213865
 30
0.0
  0
LINE
  5
127
100
AcDbEntity
  8
Layer_1
 62
5
100
AcDbLine
 10
120.214949
 20
93.213865
 30
0.0
 11
120.214949
 21
93.213865
 31
0.0
  0
SPLINE
  5
128
100
AcDbEntity
  8
Layer_1
 62
5
100
AcDbSpline
 70
8
 71
3
 72
8
 73
4
 74
0
 40
0
 40
0
 40
0
 40
0
 40
1
 40
1
 40
1
 40
1
 10
76.973764
 20
119.107018
 30
0.0
 10
79.679959
 20
119.107018
 30
0.0
 10
81.873765
 20
121.300824
 30
0.0
 10
81.873765
 20
124.007016
 30
0.0
  0
SPLINE
  5
129
100
AcDbEntity
  8
Layer_1
 62
5
100
AcDbSpline
 70
8
 71
3
 72
8
 73
4
 74
0
 40
0
 40
0
 40
0
 40
0
 40
1
 40
1
 40
1
 40
1
 10
81.873765
 20
124.007016
 30
0.0
 10
81.873762
 20
126.713209
 30
0.0
 10
84.067566
 20
128.907018
 30
0.0
 10
86.773764
 20
128.907018
 30
0.0
  0
SPLINE
  5
12a
100
AcDbEntity
  8
Layer_1
 62
5
100
AcDbSpline
 70
8
 71
3
 72
8
 73
4
 74
0
 40
0
 40
0
 40
0
 40
0
 40
1
 40
1
 40
1
 40
1
 10
86.773764
 20
128.907018
 30
0.0
 10
89.479959
 20
128.907018
 30
0.0
 10
91.673765
 20
131.100821
 30
0.0
 10
91.673709
 20
133.790077
 30
0.0
  0
LINE
  5
12b
100
AcDbEntity
  8
Layer_1
 62
5
100
AcDbLine
 10
91.673709
 20
133.790077
 30
0.0
 11
91.664932
 21
160.357001
 31
0.0
  0
SPLINE
  5
12c
100
AcDbEntity
  8
Layer_1
 62
5
100
AcDbSpline
 70
8
 71
3
 72
8
 73
4
 74
0
 40
0
 40
0
 40
0
 40
0
 40
1
 40
1
 40
1
 40
1
 10
91.664932
 20
160.357001
 30
0.0
 10
91.664085
 20
163.127010
 30
0.0
 10
89.434927
 20
165.357014
 30
0.0
 10
86.664922
 20
165.357014
 30
0.0
  0
LINE
  5
12d
100
AcDbEntity
  8
Layer_1
 62
5
100
AcDbLine
 10
86.664922
 20
165.357014
 30
0.0
 11
30.414940
 21
165.357014
 31
0.0
  0
SPLINE
  5
12e
100
AcDbEntity
  8
Layer_1
 62
5
100
AcDbSpline
 70
8
 71
3
 72
8
 73
4
 74
0
 40
0
 40
0
 40
0
 40
0
 40
1
 40
1
 40
1
 40
1
 10
30.414940
 20
165.357014
 30
0.0
 10
27.644934
 20
165.357014
 30
0.0
 10
25.414924
 20
163.127010
 30
0.0
 10
25.414930
 20
160.357001
 30
0.0
  0
LINE
  5
12f
100
AcDbEntity
  8
Layer_1
 62
5
100
AcDbLine
 10
25.414930
 20
160.357001
 30
0.0
 11
25.414987
 21
133.792838
 31
0.0
  0
SPLINE
  5
130
100
AcDbEntity
  8
Layer_1
 62
5
100
AcDbSpline
 70
8
 71
3
 72
8
 73
4
 74
0
 40
0
 40
0
 40
0
 40
0
 40
1
 40
1
 40
1
 40
1
 10
25.414987
 20
133.792838
 30
0.0
 10
25.414947
 20
131.100807
 30
0.0
 10
27.608754
 20
128.907004
 30
0.0
 10
30.314946
 20
128.907004
 30
0.0
  0
SPLINE
  5
131
100
AcDbEntity
  8
Layer_1
 62
5
100
AcDbSpline
 70
8
 71
3
 72
8
 73
4
 74
0
 40
0
 40
0
 40
0
 40
0
 40
1
 40
1
 40
1
 40
1
 10
30.314946
 20
128.907004
 30
0.0
 10
33.021141
 20
128.907007
 30
0.0
 10
35.214944
 20
126.713203
 30
0.0
 10
35.214944
 20
124.007005
 30
0.0
  0
SPLINE
  5
132
100
AcDbEntity
  8
Layer_1
 62
5
100
AcDbSpline
 70
8
 71
3
 72
8
 73
4
 74
0
 40
0
 40
0
 40
0
 40
0
 40
1
 40
1
 40
1
 40
1
 10
35.214944
 20
124.007005
 30
0.0
 10
35.214947
 20
121.300810
 30
0.0
 10
37.408754
 20
119.107004
 30
0.0
 10
40.074258
 20
119.107334
 30
0.0
  0
SPLINE
  5
133
100
AcDbEntity
  8
Layer_1
 62
5
100
AcDbSpline
 70
8
 71
3
 72
8
 73
4
 74
0
 40
0
 40
0
 40
0
 40
0
 40
1
 40
1
 40
1
 40
1
 10
40.074258
 20
119.107334
 30
0.0
 10
52.486823
 20
119.107616
 30
0.0
 10
76.973764
 20
119.107052
 30
0.0
 10
76.973764
 20
119.107052
 30
0.0
  0
LINE
  5
134
100
AcDbEntity
  8
Layer_1
 62
5
100
AcDbLine
 10
76.973764
 20
119.107052
 30
0.0
 11
76.973764
 21
119.107018
 31
0.0
  0
LINE
  5
135
100
AcDbEntity
  8
Layer_1
 62
7
100
AcDbLine
 10
39.170379
 20
186.609194
 30
0.0
 11
37.695229
 21
184.766303
 31
0.0
  0
LINE
  5
136
100
AcDbEntity
  8
Layer_1
 62
7
100
AcDbLine
 10
37.695229
 20
184.766303
 30
0.0
 11
40.062701
 21
182.986988
 31
0.0
  0
LINE
  5
137
100
AcDbEntity
  8
Layer_1
 62
7
100
AcDbLine
 10
40.062701
 20
182.986988
 30
0.0
 11
41.323526
 21
184.783815
 31
0.0
  0
LINE
  5
138
100
AcDbEntity
  8
Layer_1
 62
7
100
AcDbLine
 10
65.301693
 20
190.706033
 30
0.0
 11
62.996273
 21
191.221481
 31
0.0
  0
LINE
  5
139
100
AcDbEntity
  8
Layer_1
 62
7
100
AcDbLine
 10
62.996273
 20
191.221481
 30
0.0
 11
59.257577
 21
174.319119
 31
0.0
  0
LINE
  5
13a
100
AcDbEntity
  8
Layer_1
 62
7
100
AcDbLine
 10
59.257577
 20
174.319119
 30
0.0
 11
61.562618
 21
173.803293
 31
0.0
  0
LINE
  5
13b
100
AcDbEntity
  8
Layer_1
 62
7
100
AcDbLine
 10
61.562618
 20
173.803293
 30
0.0
 11
65.301693
 21
190.706033
 31
0.0
  0
LINE
  5
13c
100
AcDbEntity
  8
Layer_1
 62
7
100
AcDbLine
 10
65.301693
 20
190.706033
 30
0.0
 11
65.301693
 21
190.706033
 31
0.0
  0
LINE
  5
13d
100
AcDbEntity
  8
Layer_1
 62
1
100
AcDbLine
 10
61.573659
 20
173.853125
 30
0.0
 11
59.268617
 21
174.368189
 31
0.0
  0
LINE
  5
13e
100
AcDbEntity
  8
Layer_1
 62
1
100
AcDbLine
 10
59.268617
 20
174.368189
 30
0.0
 11
58.551790
 21
171.127809
 31
0.0
  0
LINE
  5
13f
100
AcDbEntity
  8
Layer_1
 62
1
100
AcDbLine
 10
58.551790
 20
171.127809
 30
0.0
 11
60.856831
 21
170.612362
 31
0.0
  0
LINE
  5
140
100
AcDbEntity
  8
Layer_1
 62
1
100
AcDbLine
 10
60.856831
 20
170.612362
 30
0.0
 11
61.573659
 21
173.853125
 31
0.0
  0
LINE
  5
141
100
AcDbEntity
  8
Layer_1
 62
1
100
AcDbLine
 10
61.573659
 20
173.853125
 30
0.0
 11
61.573659
 21
173.853125
 31
0.0
  0
LINE
  5
142
100
AcDbEntity
  8
Layer_1
 62
1
100
AcDbLine
 10
66.002457
 20
193.871952
 30
0.0
 11
63.697418
 21
194.387399
 31
0.0
  0
LINE
  5
143
100
AcDbEntity
  8
Layer_1
 62
1
100
AcDbLine
 10
63.697418
 20
194.387399
 30
0.0
 11
62.980209
 21
191.146639
 31
0.0
  0
LINE
  5
144
100
AcDbEntity
  8
Layer_1
 62
1
100
AcDbLine
 10
62.980209
 20
191.146639
 30
0.0
 11
65.285632
 21
190.630813
 31
0.0
  0
LINE
  5
145
100
AcDbEntity
  8
Layer_1
 62
1
100
AcDbLine
 10
65.285632
 20
190.630813
 30
0.0
 11
66.002457
 21
193.871952
 31
0.0
  0
LINE
  5
146
100
AcDbEntity
  8
Layer_1
 62
1
100
AcDbLine
 10
66.002457
 20
193.871952
 30
0.0
 11
66.002457
 21
193.871952
 31
0.0
  0
LINE
  5
147
100
AcDbEntity
  8
Layer_1
 62
7
100
AcDbLine
 10
61.456562
 20
190.322000
 30
0.0
 11
58.470476
 21
191.009894
 31
0.0
  0
LINE
  5
148
100
AcDbEntity
  8
Layer_1
 62
7
100
AcDbLine
 10
58.470476
 20
191.009894
 30
0.0
 11
58.333051
 21
190.414885
 31
0.0
  0
LINE
  5
149
100
AcDbEntity
  8
Layer_1
 62
7
100
AcDbLine
 10
58.333051
 20
190.414885
 30
0.0
 11
60.284434
 21
189.220300
 31
0.0
  0
SPLINE
  5
14a
100
AcDbEntity
  8
Layer_1
 62
7
100
AcDbSpline
 70
8
 71
3
 72
8
 73
4
 74
0
 40
0
 40
0
 40
0
 40
0
 40
1
 40
1
 40
1
 40
1
 10
60.284434
 20
189.220300
 30
0.0
 10
60.466402
 20
189.110284
 30
0.0
 10
60.602306
 20
189.028815
 30
0.0
 10
60.693670
 20
188.976663
 30
0.0
  0
SPLINE
  5
14b
100
AcDbEntity
  8
Layer_1
 62
7
100
AcDbSpline
 70
8
 71
3
 72
8
 73
4
 74
0
 40
0
 40
0
 40
0
 40
0
 40
1
 40
1
 40
1
 40
1
 10
60.693670
 20
188.976663
 30
0.0
 10
60.577180
 20
188.967152
 30
0.0
 10
60.405493
 20
188.951150
 30
0.0
 10
60.178603
 20
188.927554
 30
0.0
  0
LINE
  5
14c
100
AcDbEntity
  8
Layer_1
 62
7
100
AcDbLine
 10
60.178603
 20
188.927554
 30
0.0
 11
57.935614
 21
188.691909
 31
0.0
  0
LINE
  5
14d
100
AcDbEntity
  8
Layer_1
 62
7
100
AcDbLine
 10
57.935614
 20
188.691909
 30
0.0
 11
57.813037
 21
188.160095
 31
0.0
  0
LINE
  5
14e
100
AcDbEntity
  8
Layer_1
 62
7
100
AcDbLine
 10
57.813037
 20
188.160095
 30
0.0
 11
60.799120
 21
187.471820
 31
0.0
  0
LINE
  5
14f
100
AcDbEntity
  8
Layer_1
 62
7
100
AcDbLine
 10
60.799120
 20
187.471820
 30
0.0
 11
60.887057
 21
187.852501
 31
0.0
  0
LINE
  5
150
100
AcDbEntity
  8
Layer_1
 62
7
100
AcDbLine
 10
60.887057
 20
187.852501
 30
0.0
 11
58.387489
 21
188.428478
 31
0.0
  0
LINE
  5
151
100
AcDbEntity
  8
Layer_1
 62
7
100
AcDbLine
 10
58.387489
 20
188.428478
 30
0.0
 11
61.087297
 21
188.720462
 31
0.0
  0
LINE
  5
152
100
AcDbEntity
  8
Layer_1
 62
7
100
AcDbLine
 10
61.087297
 20
188.720462
 30
0.0
 11
61.169144
 21
189.076781
 31
0.0
  0
LINE
  5
153
100
AcDbEntity
  8
Layer_1
 62
7
100
AcDbLine
 10
61.169144
 20
189.076781
 30
0.0
 11
58.826415
 21
190.526427
 31
0.0
  0
LINE
  5
154
100
AcDbEntity
  8
Layer_1
 62
7
100
AcDbLine
 10
58.826415
 20
190.526427
 30
0.0
 11
61.368622
 21
189.940554
 31
0.0
  0
LINE
  5
155
100
AcDbEntity
  8
Layer_1
 62
7
100
AcDbLine
 10
61.368622
 20
189.940554
 30
0.0
 11
61.456562
 21
190.322000
 31
0.0
  0
LINE
  5
156
100
AcDbEntity
  8
Layer_1
 62
7
100
AcDbLine
 10
61.456562
 20
190.322000
 30
0.0
 11
61.456562
 21
190.322000
 31
0.0
  0
LINE
  5
157
100
AcDbEntity
  8
Layer_1
 62
7
100
AcDbLine
 10
59.303150
 20
186.583193
 30
0.0
 11
59.069792
 21
185.570193
 31
0.0
  0
LINE
  5
158
100
AcDbEntity
  8
Layer_1
 62
7
100
AcDbLine
 10
59.069792
 20
185.570193
 30
0.0
 11
58.314133
 21
186.072695
 31
0.0
  0
SPLINE
  5
159
100
AcDbEntity
  8
Layer_1
 62
7
100
AcDbSpline
 70
8
 71
3
 72
8
 73
4
 74
0
 40
0
 40
0
 40
0
 40
0
 40
1
 40
1
 40
1
 40
1
 10
58.314133
 20
186.072695
 30
0.0
 10
58.084582
 20
186.226111
 30
0.0
 10
57.894999
 20
186.343741
 30
0.0
 10
57.743869
 20
186.427494
 30
0.0
  0
SPLINE
  5
15a
100
AcDbEntity
  8
Layer_1
 62
7
100
AcDbSpline
 70
8
 71
3
 72
8
 73
4
 74
0
 40
0
 40
0
 40
0
 40
0
 40
1
 40
1
 40
1
 40
1
 10
57.743869
 20
186.427494
 30
0.0
 10
57.944109
 20
186.421398
 30
0.0
 10
58.147013
 20
186.431304
 30
0.0
 10
58.351440
 20
186.456805
 30
0.0
  0
LINE
  5
15b
100
AcDbEntity
  8
Layer_1
 62
7
100
AcDbLine
 10
58.351440
 20
186.456805
 30
0.0
 11
59.303150
 21
186.583193
 31
0.0
  0
LINE
  5
15c
100
AcDbEntity
  8
Layer_1
 62
7
100
AcDbLine
 10
59.303150
 20
186.583193
 30
0.0
 11
59.303150
 21
186.583193
 31
0.0
  0
LINE
  5
15d
100
AcDbEntity
  8
Layer_1
 62
7
100
AcDbLine
 10
60.728051
 20
187.162211
 30
0.0
 11
57.477390
 21
186.703487
 31
0.0
  0
LINE
  5
15e
100
AcDbEntity
  8
Layer_1
 62
7
100
AcDbLine
 10
57.477390
 20
186.703487
 30
0.0
 11
57.379173
 21
186.277504
 31
0.0
  0
LINE
  5
15f
100
AcDbEntity
  8
Layer_1
 62
7
100
AcDbLine
 10
57.379173
 20
186.277504
 30
0.0
 11
60.083551
 21
184.366851
 31
0.0
  0
LINE
  5
160
100
AcDbEntity
  8
Layer_1
 62
7
100
AcDbLine
 10
60.083551
 20
184.366851
 30
0.0
 11
60.187479
 21
184.816820
 31
0.0
  0
LINE
  5
161
100
AcDbEntity
  8
Layer_1
 62
7
100
AcDbLine
 10
60.187479
 20
184.816820
 30
0.0
 11
59.362916
 21
185.373761
 31
0.0
  0
LINE
  5
162
100
AcDbEntity
  8
Layer_1
 62
7
100
AcDbLine
 10
59.362916
 20
185.373761
 30
0.0
 11
59.651093
 21
186.622786
 31
0.0
  0
LINE
  5
163
100
AcDbEntity
  8
Layer_1
 62
7
100
AcDbLine
 10
59.651093
 20
186.622786
 30
0.0
 11
60.630975
 21
186.741940
 31
0.0
  0
LINE
  5
164
100
AcDbEntity
  8
Layer_1
 62
7
100
AcDbLine
 10
60.630975
 20
186.741940
 30
0.0
 11
60.728051
 21
187.162211
 31
0.0
  0
LINE
  5
165
100
AcDbEntity
  8
Layer_1
 62
7
100
AcDbLine
 10
60.728051
 20
187.162211
 30
0.0
 11
60.728051
 21
187.162211
 31
0.0
  0
LINE
  5
166
100
AcDbEntity
  8
Layer_1
 62
7
100
AcDbLine
 10
58.516842
 20
182.923948
 30
0.0
 11
58.166997
 21
183.004652
 31
0.0
  0
LINE
  5
167
100
AcDbEntity
  8
Layer_1
 62
7
100
AcDbLine
 10
58.166997
 20
183.004652
 30
0.0
 11
57.873108
 21
181.740020
 31
0.0
  0
LINE
  5
168
100
AcDbEntity
  8
Layer_1
 62
7
100
AcDbLine
 10
57.873108
 20
181.740020
 30
0.0
 11
58.980897
 21
181.484199
 31
0.0
  0
SPLINE
  5
169
100
AcDbEntity
  8
Layer_1
 62
7
100
AcDbSpline
 70
8
 71
3
 72
8
 73
4
 74
0
 40
0
 40
0
 40
0
 40
0
 40
1
 40
1
 40
1
 40
1
 10
58.980897
 20
181.484199
 30
0.0
 10
59.181137
 20
181.642947
 30
0.0
 10
59.343307
 20
181.816536
 30
0.0
 10
59.469314
 20
182.004595
 30
0.0
  0
SPLINE
  5
16a
100
AcDbEntity
  8
Layer_1
 62
7
100
AcDbSpline
 70
8
 71
3
 72
8
 73
4
 74
0
 40
0
 40
0
 40
0
 40
0
 40
1
 40
1
 40
1
 40
1
 10
59.469314
 20
182.004595
 30
0.0
 10
59.594940
 20
182.193034
 30
0.0
 10
59.682496
 20
182.396319
 30
0.0
 10
59.732749
 20
182.613308
 30
0.0
  0
SPLINE
  5
16b
100
AcDbEntity
  8
Layer_1
 62
7
100
AcDbSpline
 70
8
 71
3
 72
8
 73
4
 74
0
 40
0
 40
0
 40
0
 40
0
 40
1
 40
1
 40
1
 40
1
 10
59.732749
 20
182.613308
 30
0.0
 10
59.800510
 20
182.906817
 30
0.0
 10
59.798986
 20
183.187379
 30
0.0
 10
59.728939
 20
183.456523
 30
0.0
  0
SPLINE
  5
16c
100
AcDbEntity
  8
Layer_1
 62
7
100
AcDbSpline
 70
8
 71
3
 72
8
 73
4
 74
0
 40
0
 40
0
 40
0
 40
0
 40
1
 40
1
 40
1
 40
1
 10
59.728942
 20
183.456523
 30
0.0
 10
59.658516
 20
183.725287
 30
0.0
 10
59.518805
 20
183.947985
 30
0.0
 10
59.309046
 20
184.124622
 30
0.0
  0
SPLINE
  5
16d
100
AcDbEntity
  8
Layer_1
 62
7
100
AcDbSpline
 70
8
 71
3
 72
8
 73
4
 74
0
 40
0
 40
0
 40
0
 40
0
 40
1
 40
1
 40
1
 40
1
 10
59.309046
 20
184.124622
 30
0.0
 10
59.100052
 20
184.302403
 30
0.0
 10
58.848420
 20
184.424221
 30
0.0
 10
58.554533
 20
184.491983
 30
0.0
  0
SPLINE
  5
16e
100
AcDbEntity
  8
Layer_1
 62
7
100
AcDbSpline
 70
8
 71
3
 72
8
 73
4
 74
0
 40
0
 40
0
 40
0
 40
0
 40
1
 40
1
 40
1
 40
1
 10
58.554533
 20
184.491983
 30
0.0
 10
58.264451
 20
184.558985
 30
0.0
 10
57.978938
 20
184.560887
 30
0.0
 10
57.698753
 20
184.497684
 30
0.0
  0
SPLINE
  5
16f
100
AcDbEntity
  8
Layer_1
 62
7
100
AcDbSpline
 70
8
 71
3
 72
8
 73
4
 74
0
 40
0
 40
0
 40
0
 40
0
 40
1
 40
1
 40
1
 40
1
 10
57.698753
 20
184.497692
 30
0.0
 10
57.418953
 20
184.433738
 30
0.0
 10
57.192063
 20
184.302403
 30
0.0
 10
57.017331
 20
184.102544
 30
0.0
  0
SPLINE
  5
170
100
AcDbEntity
  8
Layer_1
 62
7
100
AcDbSpline
 70
8
 71
3
 72
8
 73
4
 74
0
 40
0
 40
0
 40
0
 40
0
 40
1
 40
1
 40
1
 40
1
 10
57.017331
 20
184.102544
 30
0.0
 10
56.841834
 20
183.901924
 30
0.0
 10
56.720018
 20
183.653337
 30
0.0
 10
56.651873
 20
183.356402
 30
0.0
  0
SPLINE
  5
171
100
AcDbEntity
  8
Layer_1
 62
7
100
AcDbSpline
 70
8
 71
3
 72
8
 73
4
 74
0
 40
0
 40
0
 40
0
 40
0
 40
1
 40
1
 40
1
 40
1
 10
56.651873
 20
183.356402
 30
0.0
 10
56.602004
 20
183.140175
 30
0.0
 10
56.591725
 20
182.936890
 30
0.0
 10
56.621418
 20
182.746167
 30
0.0
  0
SPLINE
  5
172
100
AcDbEntity
  8
Layer_1
 62
7
100
AcDbSpline
 70
8
 71
3
 72
8
 73
4
 74
0
 40
0
 40
0
 40
0
 40
0
 40
1
 40
1
 40
1
 40
1
 10
56.621418
 20
182.746167
 30
0.0
 10
56.651492
 20
182.555825
 30
0.0
 10
56.717351
 20
182.396319
 30
0.0
 10
56.818993
 20
182.268407
 30
0.0
  0
SPLINE
  5
173
100
AcDbEntity
  8
Layer_1
 62
7
100
AcDbSpline
 70
8
 71
3
 72
8
 73
4
 74
0
 40
0
 40
0
 40
0
 40
0
 40
1
 40
1
 40
1
 40
1
 10
56.818993
 20
182.268407
 30
0.0
 10
56.921398
 20
182.140499
 30
0.0
 10
57.066818
 20
182.027816
 30
0.0
 10
57.256017
 20
181.929600
 30
0.0
  0
LINE
  5
174
100
AcDbEntity
  8
Layer_1
 62
7
100
AcDbLine
 10
57.256017
 20
181.929600
 30
0.0
 11
57.436084
 21
182.263460
 31
0.0
  0
SPLINE
  5
175
100
AcDbEntity
  8
Layer_1
 62
7
100
AcDbSpline
 70
8
 71
3
 72
8
 73
4
 74
0
 40
0
 40
0
 40
0
 40
0
 40
1
 40
1
 40
1
 40
1
 10
57.436084
 20
182.263460
 30
0.0
 10
57.294467
 20
182.343402
 30
0.0
 10
57.187116
 20
182.426393
 30
0.0
 10
57.116309
 20
182.512806
 30
0.0
  0
SPLINE
  5
176
100
AcDbEntity
  8
Layer_1
 62
7
100
AcDbSpline
 70
8
 71
3
 72
8
 73
4
 74
0
 40
0
 40
0
 40
0
 40
0
 40
1
 40
1
 40
1
 40
1
 10
57.116309
 20
182.512806
 30
0.0
 10
57.043978
 20
182.599223
 30
0.0
 10
56.996774
 20
182.710382
 30
0.0
 10
56.972790
 20
182.846286
 30
0.0
  0
SPLINE
  5
177
100
AcDbEntity
  8
Layer_1
 62
7
100
AcDbSpline
 70
8
 71
3
 72
8
 73
4
 74
0
 40
0
 40
0
 40
0
 40
0
 40
1
 40
1
 40
1
 40
1
 10
56.972790
 20
182.846286
 30
0.0
 10
56.949197
 20
182.982190
 30
0.0
 10
56.954898
 20
183.125327
 30
0.0
 10
56.989526
 20
183.276460
 30
0.0
  0
SPLINE
  5
178
100
AcDbEntity
  8
Layer_1
 62
7
100
AcDbSpline
 70
8
 71
3
 72
8
 73
4
 74
0
 40
0
 40
0
 40
0
 40
0
 40
1
 40
1
 40
1
 40
1
 10
56.989540
 20
183.276460
 30
0.0
 10
57.031035
 20
183.456523
 30
0.0
 10
57.094228
 20
183.606891
 30
0.0
 10
57.180263
 20
183.725668
 30
0.0
  0
SPLINE
  5
179
100
AcDbEntity
  8
Layer_1
 62
7
100
AcDbSpline
 70
8
 71
3
 72
8
 73
4
 74
0
 40
0
 40
0
 40
0
 40
0
 40
1
 40
1
 40
1
 40
1
 10
57.180263
 20
183.725668
 30
0.0
 10
57.265537
 20
183.844441
 30
0.0
 10
57.362229
 20
183.934281
 30
0.0
 10
57.470343
 20
183.994809
 30
0.0
  0
SPLINE
  5
17a
100
AcDbEntity
  8
Layer_1
 62
7
100
AcDbSpline
 70
8
 71
3
 72
8
 73
4
 74
0
 40
0
 40
0
 40
0
 40
0
 40
1
 40
1
 40
1
 40
1
 10
57.470343
 20
183.994809
 30
0.0
 10
57.578840
 20
184.054197
 30
0.0
 10
57.691901
 20
184.094549
 30
0.0
 10
57.809534
 20
184.115106
 30
0.0
  0
SPLINE
  5
17b
100
AcDbEntity
  8
Layer_1
 62
7
100
AcDbSpline
 70
8
 71
3
 72
8
 73
4
 74
0
 40
0
 40
0
 40
0
 40
0
 40
1
 40
1
 40
1
 40
1
 10
57.809534
 20
184.115106
 30
0.0
 10
58.010914
 20
184.147844
 30
0.0
 10
58.220292
 20
184.139857
 30
0.0
 10
58.436519
 20
184.090355
 30
0.0
  0
SPLINE
  5
17c
100
AcDbEntity
  8
Layer_1
 62
7
100
AcDbSpline
 70
8
 71
3
 72
8
 73
4
 74
0
 40
0
 40
0
 40
0
 40
0
 40
1
 40
1
 40
1
 40
1
 10
58.436519
 20
184.090361
 30
0.0
 10
58.702237
 20
184.029071
 30
0.0
 10
58.914657
 20
183.931235
 30
0.0
 10
59.073023
 20
183.798757
 30
0.0
  0
SPLINE
  5
17d
100
AcDbEntity
  8
Layer_1
 62
7
100
AcDbSpline
 70
8
 71
3
 72
8
 73
4
 74
0
 40
0
 40
0
 40
0
 40
0
 40
1
 40
1
 40
1
 40
1
 10
59.073023
 20
183.798757
 30
0.0
 10
59.231006
 20
183.665898
 30
0.0
 10
59.333410
 20
183.501445
 30
0.0
 10
59.379852
 20
183.306534
 30
0.0
  0
SPLINE
  5
17e
100
AcDbEntity
  8
Layer_1
 62
7
100
AcDbSpline
 70
8
 71
3
 72
8
 73
4
 74
0
 40
0
 40
0
 40
0
 40
0
 40
1
 40
1
 40
1
 40
1
 10
59.379852
 20
183.306534
 30
0.0
 10
59.426298
 20
183.110861
 30
0.0
 10
59.426679
 20
182.915190
 30
0.0
 10
59.381264
 20
182.717996
 30
0.0
  0
SPLINE
  5
17f
100
AcDbEntity
  8
Layer_1
 62
7
100
AcDbSpline
 70
8
 71
3
 72
8
 73
4
 74
0
 40
0
 40
0
 40
0
 40
0
 40
1
 40
1
 40
1
 40
1
 10
59.381376
 20
182.717996
 30
0.0
 10
59.342167
 20
182.547071
 30
0.0
 10
59.270599
 20
182.387562
 30
0.0
 10
59.167432
 20
182.239477
 30
0.0
  0
SPLINE
  5
180
100
AcDbEntity
  8
Layer_1
 62
7
100
AcDbSpline
 70
8
 71
3
 72
8
 73
4
 74
0
 40
0
 40
0
 40
0
 40
0
 40
1
 40
1
 40
1
 40
1
 10
59.167432
 20
182.239477
 30
0.0
 10
59.063888
 20
182.092154
 30
0.0
 10
58.965291
 20
181.984799
 30
0.0
 10
58.871260
 20
181.917419
 30
0.0
  0
LINE
  5
181
100
AcDbEntity
  8
Layer_1
 62
7
100
AcDbLine
 10
58.871260
 20
181.917419
 30
0.0
 11
58.314701
 21
182.045709
 31
0.0
  0
LINE
  5
182
100
AcDbEntity
  8
Layer_1
 62
7
100
AcDbLine
 10
58.314701
 20
182.045709
 30
0.0
 11
58.516842
 21
182.923948
 31
0.0
  0
LINE
  5
183
100
AcDbEntity
  8
Layer_1
 62
7
100
AcDbLine
 10
58.516842
 20
182.923948
 30
0.0
 11
58.516842
 21
182.923948
 31
0.0
  0
LINE
  5
184
100
AcDbEntity
  8
Layer_1
 62
7
100
AcDbLine
 10
59.260741
 20
180.797826
 30
0.0
 11
56.273895
 21
181.486483
 31
0.0
  0
LINE
  5
185
100
AcDbEntity
  8
Layer_1
 62
7
100
AcDbLine
 10
56.273895
 20
181.486483
 30
0.0
 11
55.776724
 21
179.326864
 31
0.0
  0
LINE
  5
186
100
AcDbEntity
  8
Layer_1
 62
7
100
AcDbLine
 10
55.776724
 20
179.326864
 30
0.0
 11
56.128475
 21
179.246160
 31
0.0
  0
LINE
  5
187
100
AcDbEntity
  8
Layer_1
 62
7
100
AcDbLine
 10
56.128475
 20
179.246160
 30
0.0
 11
56.535428
 21
181.009868
 31
0.0
  0
LINE
  5
188
100
AcDbEntity
  8
Layer_1
 62
7
100
AcDbLine
 10
56.535428
 20
181.009868
 30
0.0
 11
57.449828
 21
180.798588
 31
0.0
  0
LINE
  5
189
100
AcDbEntity
  8
Layer_1
 62
7
100
AcDbLine
 10
57.449828
 20
180.798588
 30
0.0
 11
57.069525
 21
179.147182
 31
0.0
  0
LINE
  5
18a
100
AcDbEntity
  8
Layer_1
 62
7
100
AcDbLine
 10
57.069525
 20
179.147182
 30
0.0
 11
57.419754
 21
179.066097
 31
0.0
  0
LINE
  5
18b
100
AcDbEntity
  8
Layer_1
 62
7
100
AcDbLine
 10
57.419754
 20
179.066097
 30
0.0
 11
57.801200
 21
180.718643
 31
0.0
  0
LINE
  5
18c
100
AcDbEntity
  8
Layer_1
 62
7
100
AcDbLine
 10
57.801200
 20
180.718643
 30
0.0
 11
58.817245
 21
180.483761
 31
0.0
  0
LINE
  5
18d
100
AcDbEntity
  8
Layer_1
 62
7
100
AcDbLine
 10
58.817245
 20
180.483761
 30
0.0
 11
58.394685
 21
178.650389
 31
0.0
  0
LINE
  5
18e
100
AcDbEntity
  8
Layer_1
 62
7
100
AcDbLine
 10
58.394685
 20
178.650389
 30
0.0
 11
58.746820
 21
178.569304
 31
0.0
  0
LINE
  5
18f
100
AcDbEntity
  8
Layer_1
 62
7
100
AcDbLine
 10
58.746820
 20
178.569304
 30
0.0
 11
59.260741
 21
180.797826
 31
0.0
  0
LINE
  5
190
100
AcDbEntity
  8
Layer_1
 62
7
100
AcDbLine
 10
59.260741
 20
180.797826
 30
0.0
 11
59.260741
 21
180.797826
 31
0.0
  0
LINE
  5
191
100
AcDbEntity
  8
Layer_1
 62
7
100
AcDbLine
 10
58.619289
 20
178.015025
 30
0.0
 11
55.632825
 21
178.703684
 31
0.0
  0
LINE
  5
192
100
AcDbEntity
  8
Layer_1
 62
7
100
AcDbLine
 10
55.632825
 20
178.703684
 30
0.0
 11
55.134892
 21
176.544444
 31
0.0
  0
LINE
  5
193
100
AcDbEntity
  8
Layer_1
 62
7
100
AcDbLine
 10
55.134892
 20
176.544444
 30
0.0
 11
55.487404
 21
176.462978
 31
0.0
  0
LINE
  5
194
100
AcDbEntity
  8
Layer_1
 62
7
100
AcDbLine
 10
55.487404
 20
176.462978
 30
0.0
 11
55.893973
 21
178.227067
 31
0.0
  0
LINE
  5
195
100
AcDbEntity
  8
Layer_1
 62
7
100
AcDbLine
 10
55.893973
 20
178.227067
 30
0.0
 11
56.808757
 21
178.016168
 31
0.0
  0
LINE
  5
196
100
AcDbEntity
  8
Layer_1
 62
7
100
AcDbLine
 10
56.808757
 20
178.016168
 30
0.0
 11
56.427692
 21
176.364762
 31
0.0
  0
LINE
  5
197
100
AcDbEntity
  8
Layer_1
 62
7
100
AcDbLine
 10
56.427692
 20
176.364762
 30
0.0
 11
56.778303
 21
176.283295
 31
0.0
  0
LINE
  5
198
100
AcDbEntity
  8
Layer_1
 62
7
100
AcDbLine
 10
56.778303
 20
176.283295
 30
0.0
 11
57.158987
 21
177.935464
 31
0.0
  0
LINE
  5
199
100
AcDbEntity
  8
Layer_1
 62
7
100
AcDbLine
 10
57.158987
 20
177.935464
 30
0.0
 11
58.175794
 21
177.701343
 31
0.0
  0
LINE
  5
19a
100
AcDbEntity
  8
Layer_1
 62
7
100
AcDbLine
 10
58.175794
 20
177.701343
 30
0.0
 11
57.753234
 21
175.867588
 31
0.0
  0
LINE
  5
19b
100
AcDbEntity
  8
Layer_1
 62
7
100
AcDbLine
 10
57.753234
 20
175.867588
 30
0.0
 11
58.104984
 21
175.786502
 31
0.0
  0
LINE
  5
19c
100
AcDbEntity
  8
Layer_1
 62
7
100
AcDbLine
 10
58.104984
 20
175.786502
 30
0.0
 11
58.619289
 21
178.015025
 31
0.0
  0
LINE
  5
19d
100
AcDbEntity
  8
Layer_1
 62
7
100
AcDbLine
 10
58.619289
 20
178.015025
 30
0.0
 11
58.619289
 21
178.015025
 31
0.0
  0
LINE
  5
19e
100
AcDbEntity
  8
Layer_1
 62
7
100
AcDbLine
 10
56.441126
 20
173.351461
 30
0.0
 11
56.449875
 21
172.932708
 31
0.0
  0
SPLINE
  5
19f
100
AcDbEntity
  8
Layer_1
 62
7
100
AcDbSpline
 70
8
 71
3
 72
8
 73
4
 74
0
 40
0
 40
0
 40
0
 40
0
 40
1
 40
1
 40
1
 40
1
 10
56.449883
 20
172.932708
 30
0.0
 10
56.793641
 20
172.941090
 30
0.0
 10
57.075347
 20
173.032829
 30
0.0
 10
57.295382
 20
173.208704
 30
0.0
  0
SPLINE
  5
1a0
100
AcDbEntity
  8
Layer_1
 62
7
100
AcDbSpline
 70
8
 71
3
 72
8
 73
4
 74
0
 40
0
 40
0
 40
0
 40
0
 40
1
 40
1
 40
1
 40
1
 10
57.295382
 20
173.208704
 30
0.0
 10
57.515416
 20
173.384580
 30
0.0
 10
57.661599
 20
173.628216
 30
0.0
 10
57.733168
 20
173.939618
 30
0.0
  0
SPLINE
  5
1a1
100
AcDbEntity
  8
Layer_1
 62
7
100
AcDbSpline
 70
8
 71
3
 72
8
 73
4
 74
0
 40
0
 40
0
 40
0
 40
0
 40
1
 40
1
 40
1
 40
1
 10
57.733168
 20
173.939618
 30
0.0
 10
57.807020
 20
174.260913
 30
0.0
 10
57.802453
 20
174.538053
 30
0.0
 10
57.717194
 20
174.769887
 30
0.0
  0
SPLINE
  5
1a2
100
AcDbEntity
  8
Layer_1
 62
7
100
AcDbSpline
 70
8
 71
3
 72
8
 73
4
 74
0
 40
0
 40
0
 40
0
 40
0
 40
1
 40
1
 40
1
 40
1
 10
57.717180
 20
174.769887
 30
0.0
 10
57.632668
 20
175.001724
 30
0.0
 10
57.478490
 20
175.199300
 30
0.0
 10
57.254268
 20
175.361851
 30
0.0
  0
SPLINE
  5
1a3
100
AcDbEntity
  8
Layer_1
 62
7
100
AcDbSpline
 70
8
 71
3
 72
8
 73
4
 74
0
 40
0
 40
0
 40
0
 40
0
 40
1
 40
1
 40
1
 40
1
 10
57.254268
 20
175.361851
 30
0.0
 10
57.030045
 20
175.524403
 30
0.0
 10
56.775367
 20
175.638228
 30
0.0
 10
56.489855
 20
175.704088
 30
0.0
  0
SPLINE
  5
1a4
100
AcDbEntity
  8
Layer_1
 62
7
100
AcDbSpline
 70
8
 71
3
 72
8
 73
4
 74
0
 40
0
 40
0
 40
0
 40
0
 40
1
 40
1
 40
1
 40
1
 10
56.489855
 20
175.704088
 30
0.0
 10
56.179215
 20
175.775657
 30
0.0
 10
55.893702
 20
175.778702
 30
0.0
 10
55.634840
 20
175.713232
 30
0.0
  0
SPLINE
  5
1a5
100
AcDbEntity
  8
Layer_1
 62
7
100
AcDbSpline
 70
8
 71
3
 72
8
 73
4
 74
0
 40
0
 40
0
 40
0
 40
0
 40
1
 40
1
 40
1
 40
1
 10
55.634840
 20
175.713223
 30
0.0
 10
55.376355
 20
175.648126
 30
0.0
 10
55.161268
 20
175.519455
 30
0.0
 10
54.990721
 20
175.327970
 30
0.0
  0
SPLINE
  5
1a6
100
AcDbEntity
  8
Layer_1
 62
7
100
AcDbSpline
 70
8
 71
3
 72
8
 73
4
 74
0
 40
0
 40
0
 40
0
 40
0
 40
1
 40
1
 40
1
 40
1
 10
54.990721
 20
175.327970
 30
0.0
 10
54.819793
 20
175.136107
 30
0.0
 10
54.704446
 20
174.908458
 30
0.0
 10
54.643537
 20
174.644643
 30
0.0
  0
SPLINE
  5
1a7
100
AcDbEntity
  8
Layer_1
 62
7
100
AcDbSpline
 70
8
 71
3
 72
8
 73
4
 74
0
 40
0
 40
0
 40
0
 40
0
 40
1
 40
1
 40
1
 40
1
 10
54.643537
 20
174.644643
 30
0.0
 10
54.574254
 20
174.346568
 30
0.0
 10
54.592906
 20
174.077424
 30
0.0
 10
54.697216
 20
173.839115
 30
0.0
  0
SPLINE
  5
1a8
100
AcDbEntity
  8
Layer_1
 62
7
100
AcDbSpline
 70
8
 71
3
 72
8
 73
4
 74
0
 40
0
 40
0
 40
0
 40
0
 40
1
 40
1
 40
1
 40
1
 10
54.697216
 20
173.839115
 30
0.0
 10
54.803043
 20
173.600048
 30
0.0
 10
54.984250
 20
173.409325
 30
0.0
 10
55.241210
 20
173.265044
 30
0.0
  0
LINE
  5
1a9
100
AcDbEntity
  8
Layer_1
 62
7
100
AcDbLine
 10
55.241210
 20
173.265044
 30
0.0
 11
55.422798
 21
173.633167
 31
0.0
  0
SPLINE
  5
1aa
100
AcDbEntity
  8
Layer_1
 62
7
100
AcDbSpline
 70
8
 71
3
 72
8
 73
4
 74
0
 40
0
 40
0
 40
0
 40
0
 40
1
 40
1
 40
1
 40
1
 10
55.422798
 20
173.633167
 30
0.0
 10
55.221037
 20
173.752702
 30
0.0
 10
55.086654
 20
173.890127
 30
0.0
 10
55.017750
 20
174.043924
 30
0.0
  0
SPLINE
  5
1ab
100
AcDbEntity
  8
Layer_1
 62
7
100
AcDbSpline
 70
8
 71
3
 72
8
 73
4
 74
0
 40
0
 40
0
 40
0
 40
0
 40
1
 40
1
 40
1
 40
1
 10
55.017750
 20
174.043924
 30
0.0
 10
54.948848
 20
174.199245
 30
0.0
 10
54.937426
 20
174.375501
 30
0.0
 10
54.983107
 20
174.574979
 30
0.0
  0
SPLINE
  5
1ac
100
AcDbEntity
  8
Layer_1
 62
7
100
AcDbSpline
 70
8
 71
3
 72
8
 73
4
 74
0
 40
0
 40
0
 40
0
 40
0
 40
1
 40
1
 40
1
 40
1
 10
54.983107
 20
174.574979
 30
0.0
 10
55.036404
 20
174.804911
 30
0.0
 10
55.135383
 20
174.984212
 30
0.0
 10
55.281562
 20
175.112505
 30
0.0
  0
SPLINE
  5
1ad
100
AcDbEntity
  8
Layer_1
 62
7
100
AcDbSpline
 70
8
 71
3
 72
8
 73
4
 74
0
 40
0
 40
0
 40
0
 40
0
 40
1
 40
1
 40
1
 40
1
 10
55.281562
 20
175.112505
 30
0.0
 10
55.426224
 20
175.241938
 30
0.0
 10
55.599435
 20
175.315790
 30
0.0
 10
55.798531
 20
175.335204
 30
0.0
  0
SPLINE
  5
1ae
100
AcDbEntity
  8
Layer_1
 62
7
100
AcDbSpline
 70
8
 71
3
 72
8
 73
4
 74
0
 40
0
 40
0
 40
0
 40
0
 40
1
 40
1
 40
1
 40
1
 10
55.798531
 20
175.335204
 30
0.0
 10
55.998774
 20
175.355749
 30
0.0
 10
56.197108
 20
175.342824
 30
0.0
 10
56.393922
 20
175.296754
 30
0.0
  0
SPLINE
  5
1af
100
AcDbEntity
  8
Layer_1
 62
7
100
AcDbSpline
 70
8
 71
3
 72
8
 73
4
 74
0
 40
0
 40
0
 40
0
 40
0
 40
1
 40
1
 40
1
 40
1
 10
56.393922
 20
175.296754
 30
0.0
 10
56.648218
 20
175.238512
 30
0.0
 10
56.861403
 20
175.150952
 30
0.0
 10
57.033852
 20
175.032560
 30
0.0
  0
SPLINE
  5
1b0
100
AcDbEntity
  8
Layer_1
 62
7
100
AcDbSpline
 70
8
 71
3
 72
8
 73
4
 74
0
 40
0
 40
0
 40
0
 40
0
 40
1
 40
1
 40
1
 40
1
 10
57.033852
 20
175.032560
 30
0.0
 10
57.205920
 20
174.914930
 30
0.0
 10
57.320886
 20
174.767223
 30
0.0
 10
57.378750
 20
174.589446
 30
0.0
  0
SPLINE
  5
1b1
100
AcDbEntity
  8
Layer_1
 62
7
100
AcDbSpline
 70
8
 71
3
 72
8
 73
4
 74
0
 40
0
 40
0
 40
0
 40
0
 40
1
 40
1
 40
1
 40
1
 10
57.378750
 20
174.589446
 30
0.0
 10
57.436617
 20
174.411665
 30
0.0
 10
57.444229
 20
174.231602
 30
0.0
 10
57.401977
 20
174.049633
 30
0.0
  0
SPLINE
  5
1b2
100
AcDbEntity
  8
Layer_1
 62
7
100
AcDbSpline
 70
8
 71
3
 72
8
 73
4
 74
0
 40
0
 40
0
 40
0
 40
0
 40
1
 40
1
 40
1
 40
1
 10
57.401971
 20
174.049633
 30
0.0
 10
57.351341
 20
173.828459
 30
0.0
 10
57.243989
 20
173.656007
 30
0.0
 10
57.080675
 20
173.531524
 30
0.0
  0
SPLINE
  5
1b3
100
AcDbEntity
  8
Layer_1
 62
7
100
AcDbSpline
 70
8
 71
3
 72
8
 73
4
 74
0
 40
0
 40
0
 40
0
 40
0
 40
1
 40
1
 40
1
 40
1
 10
57.080675
 20
173.531524
 30
0.0
 10
56.918124
 20
173.407801
 30
0.0
 10
56.704561
 20
173.347654
 30
0.0
 10
56.441126
 20
173.351461
 30
0.0
  0
SPLINE
  5
1b4
100
AcDbEntity
  8
Layer_1
 62
7
100
AcDbSpline
 70
8
 71
3
 72
8
 73
4
 74
0
 40
0
 40
0
 40
0
 40
0
 40
1
 40
1
 40
1
 40
1
 10
60.751687
 20
197.333396
 30
0.0
 10
69.322400
 20
196.110640
 30
0.0
 10
76.342210
 20
190.906693
 30
0.0
 10
80.209958
 20
183.859856
 30
0.0
  0
LINE
  5
1b5
100
AcDbEntity
  8
Layer_1
 62
7
100
AcDbLine
 10
80.209958
 20
183.859856
 30
0.0
 11
79.344664
 21
183.076407
 31
0.0
  0
SPLINE
  5
1b6
100
AcDbEntity
  8
Layer_1
 62
7
100
AcDbSpline
 70
8
 71
3
 72
8
 73
4
 74
0
 40
0
 40
0
 40
0
 40
0
 40
1
 40
1
 40
1
 40
1
 10
79.344664
 20
183.076407
 30
0.0
 10
76.145777
 20
187.515562
 30
0.0
 10
71.300434
 20
190.758606
 30
0.0
 10
65.549064
 20
191.821477
 30
0.0
  0
LINE
  5
1b7
100
AcDbEntity
  8
Layer_1
 62
7
100
AcDbLine
 10
65.549064
 20
191.821477
 30
0.0
 11
66.002457
 21
193.871839
 31
0.0
  0
LINE
  5
1b8
100
AcDbEntity
  8
Layer_1
 62
7
100
AcDbLine
 10
66.002457
 20
193.871839
 30
0.0
 11
63.697418
 21
194.387665
 31
0.0
  0
LINE
  5
1b9
100
AcDbEntity
  8
Layer_1
 62
7
100
AcDbLine
 10
63.697418
 20
194.387665
 30
0.0
 11
63.197580
 21
192.129830
 31
0.0
  0
SPLINE
  5
1ba
100
AcDbEntity
  8
Layer_1
 62
7
100
AcDbSpline
 70
8
 71
3
 72
8
 73
4
 74
0
 40
0
 40
0
 40
0
 40
0
 40
1
 40
1
 40
1
 40
1
 10
63.197580
 20
192.129830
 30
0.0
 10
58.604249
 20
192.480822
 30
0.0
 10
54.194028
 20
191.375315
 30
0.0
 10
50.454569
 20
189.180673
 30
0.0
  0
LINE
  5
1bb
100
AcDbEntity
  8
Layer_1
 62
7
100
AcDbLine
 10
50.454569
 20
189.180673
 30
0.0
 11
46.597864
 21
195.462336
 31
0.0
  0
SPLINE
  5
1bc
100
AcDbEntity
  8
Layer_1
 62
7
100
AcDbSpline
 70
8
 71
3
 72
8
 73
4
 74
0
 40
0
 40
0
 40
0
 40
0
 40
1
 40
1
 40
1
 40
1
 10
46.597864
 20
195.462336
 30
0.0
 10
50.908727
 20
197.314744
 30
0.0
 10
55.767394
 20
198.043752
 30
0.0
 10
60.751687
 20
197.333396
 30
0.0
  0
SPLINE
  5
1bd
100
AcDbEntity
  8
Layer_1
 62
1
100
AcDbSpline
 70
8
 71
3
 72
8
 73
4
 74
0
 40
0
 40
0
 40
0
 40
0
 40
1
 40
1
 40
1
 40
1
 10
43.857167
 20
189.902637
 30
0.0
 10
43.462779
 20
189.563064
 30
0.0
 10
43.087045
 20
189.191900
 30
0.0
 10
42.643547
 20
188.729750
 30
0.0
  0
LINE
  5
1be
100
AcDbEntity
  8
Layer_1
 62
1
100
AcDbLine
 10
42.643547
 20
188.729750
 30
0.0
 11
43.136914
 21
188.255038
 31
0.0
  0
SPLINE
  5
1bf
100
AcDbEntity
  8
Layer_1
 62
1
100
AcDbSpline
 70
8
 71
3
 72
8
 73
4
 74
0
 40
0
 40
0
 40
0
 40
0
 40
1
 40
1
 40
1
 40
1
 10
43.136914
 20
188.255038
 30
0.0
 10
43.564421
 20
188.700435
 30
0.0
 10
43.919979
 20
189.051046
 30
0.0
 10
44.281249
 20
189.364349
 30
0.0
  0
LINE
  5
1c0
100
AcDbEntity
  8
Layer_1
 62
1
100
AcDbLine
 10
44.281249
 20
189.364349
 30
0.0
 11
45.355158
 21
187.999599
 31
0.0
  0
LINE
  5
1c1
100
AcDbEntity
  8
Layer_1
 62
1
100
AcDbLine
 10
45.355158
 20
187.999599
 30
0.0
 11
45.893446
 21
188.423680
 31
0.0
  0
LINE
  5
1c2
100
AcDbEntity
  8
Layer_1
 62
1
100
AcDbLine
 10
45.893446
 20
188.423680
 30
0.0
 11
44.814587
 21
189.794902
 31
0.0
  0
SPLINE
  5
1c3
100
AcDbEntity
  8
Layer_1
 62
1
100
AcDbSpline
 70
8
 71
3
 72
8
 73
4
 74
0
 40
0
 40
0
 40
0
 40
0
 40
1
 40
1
 40
1
 40
1
 10
44.814587
 20
189.794902
 30
0.0
 10
45.190704
 20
190.077369
 30
0.0
 10
45.609835
 20
190.349178
 30
0.0
 10
46.145075
 20
190.662100
 30
0.0
  0
LINE
  5
1c4
100
AcDbEntity
  8
Layer_1
 62
1
100
AcDbLine
 10
46.145075
 20
190.662100
 30
0.0
 11
45.800177
 21
191.253683
 31
0.0
  0
SPLINE
  5
1c5
100
AcDbEntity
  8
Layer_1
 62
1
100
AcDbSpline
 70
8
 71
3
 72
8
 73
4
 74
0
 40
0
 40
0
 40
0
 40
0
 40
1
 40
1
 40
1
 40
1
 10
45.800177
 20
191.253683
 30
0.0
 10
45.234101
 20
190.923630
 30
0.0
 10
44.788320
 20
190.631645
 30
0.0
 10
44.391267
 20
190.331666
 30
0.0
  0
LINE
  5
1c6
100
AcDbEntity
  8
Layer_1
 62
1
100
AcDbLine
 10
44.391267
 20
190.331666
 30
0.0
 11
43.452500
 21
191.524348
 31
0.0
  0
LINE
  5
1c7
100
AcDbEntity
  8
Layer_1
 62
1
100
AcDbLine
 10
43.452500
 20
191.524348
 30
0.0
 11
42.914215
 21
191.100267
 31
0.0
  0
LINE
  5
1c8
100
AcDbEntity
  8
Layer_1
 62
1
100
AcDbLine
 10
42.914215
 20
191.100267
 30
0.0
 11
43.857167
 21
189.902637
 31
0.0
  0
LINE
  5
1c9
100
AcDbEntity
  8
Layer_1
 62
1
100
AcDbLine
 10
43.857167
 20
189.902637
 30
0.0
 11
43.857167
 21
189.902637
 31
0.0
  0
SPLINE
  5
1ca
100
AcDbEntity
  8
Layer_1
 62
1
100
AcDbSpline
 70
8
 71
3
 72
8
 73
4
 74
0
 40
0
 40
0
 40
0
 40
0
 40
1
 40
1
 40
1
 40
1
 10
50.454417
 20
189.180859
 30
0.0
 10
47.767170
 20
187.603686
 30
0.0
 10
45.427489
 20
185.463482
 30
0.0
 10
43.615052
 20
182.897292
 30
0.0
  0
LINE
  5
1cb
100
AcDbEntity
  8
Layer_1
 62
1
100
AcDbLine
 10
43.615052
 20
182.897292
 30
0.0
 11
37.045590
 21
188.493343
 31
0.0
  0
SPLINE
  5
1cc
100
AcDbEntity
  8
Layer_1
 62
1
100
AcDbSpline
 70
8
 71
3
 72
8
 73
4
 74
0
 40
0
 40
0
 40
0
 40
0
 40
1
 40
1
 40
1
 40
1
 10
37.045590
 20
188.493343
 30
0.0
 10
39.661652
 20
191.499225
 30
0.0
 10
42.931724
 20
193.887254
 30
0.0
 10
46.597709
 20
195.462141
 30
0.0
  0
LINE
  5
1cd
100
AcDbEntity
  8
Layer_1
 62
1
100
AcDbLine
 10
46.597709
 20
195.462141
 30
0.0
 11
50.454417
 21
189.180859
 31
0.0
  0
LINE
  5
1ce
100
AcDbEntity
  8
Layer_1
 62
1
100
AcDbLine
 10
50.454417
 20
189.180859
 30
0.0
 11
50.454417
 21
189.180859
 31
0.0
  0
LINE
  5
1cf
100
AcDbEntity
  8
Layer_1
 62
7
100
AcDbLine
 10
71.158961
 20
104.935161
 30
0.0
 11
71.158961
 21
106.825830
 31
0.0
  0
SPLINE
  5
1d0
100
AcDbEntity
  8
Layer_1
 62
7
100
AcDbSpline
 70
8
 71
3
 72
8
 73
4
 74
0
 40
0
 40
0
 40
0
 40
0
 40
1
 40
1
 40
1
 40
1
 10
71.158961
 20
106.825830
 30
0.0
 10
71.158964
 20
107.114298
 30
0.0
 10
71.198470
 20
107.313654
 30
0.0
 10
71.277475
 20
107.423898
 30
0.0
  0
SPLINE
  5
1d1
100
AcDbEntity
  8
Layer_1
 62
7
100
AcDbSpline
 70
8
 71
3
 72
8
 73
4
 74
0
 40
0
 40
0
 40
0
 40
0
 40
1
 40
1
 40
1
 40
1
 10
71.277475
 20
107.423898
 30
0.0
 10
71.356483
 20
107.534137
 30
0.0
 10
71.498881
 20
107.589261
 30
0.0
 10
71.704666
 20
107.589263
 30
0.0
  0
SPLINE
  5
1d2
100
AcDbEntity
  8
Layer_1
 62
7
100
AcDbSpline
 70
8
 71
3
 72
8
 73
4
 74
0
 40
0
 40
0
 40
0
 40
0
 40
1
 40
1
 40
1
 40
1
 10
71.704666
 20
107.589263
 30
0.0
 10
71.915966
 20
107.589261
 30
0.0
 10
72.083169
 20
107.508415
 30
0.0
 10
72.206271
 20
107.346727
 30
0.0
  0
SPLINE
  5
1d3
100
AcDbEntity
  8
Layer_1
 62
7
100
AcDbSpline
 70
8
 71
3
 72
8
 73
4
 74
0
 40
0
 40
0
 40
0
 40
0
 40
1
 40
1
 40
1
 40
1
 10
72.206271
 20
107.346727
 30
0.0
 10
72.329376
 20
107.185037
 30
0.0
 10
72.390929
 20
106.957201
 30
0.0
 10
72.390929
 20
106.663222
 30
0.0
  0
LINE
  5
1d4
100
AcDbEntity
  8
Layer_1
 62
7
100
AcDbLine
 10
72.390929
 20
106.663222
 30
0.0
 11
72.390929
 21
104.935161
 31
0.0
  0
LINE
  5
1d5
100
AcDbEntity
  8
Layer_1
 62
7
100
AcDbLine
 10
72.390929
 20
104.935161
 30
0.0
 11
72.884268
 21
104.935161
 31
0.0
  0
LINE
  5
1d6
100
AcDbEntity
  8
Layer_1
 62
7
100
AcDbLine
 10
72.884268
 20
104.935161
 30
0.0
 11
72.884268
 21
107.280583
 31
0.0
  0
SPLINE
  5
1d7
100
AcDbEntity
  8
Layer_1
 62
7
100
AcDbSpline
 70
8
 71
3
 72
8
 73
4
 74
0
 40
0
 40
0
 40
0
 40
0
 40
1
 40
1
 40
1
 40
1
 10
72.884268
 20
107.280583
 30
0.0
 10
72.884268
 20
107.627846
 30
0.0
 10
72.889771
 20
107.840063
 30
0.0
 10
72.900806
 20
107.917237
 30
0.0
  0
LINE
  5
1d8
100
AcDbEntity
  8
Layer_1
 62
7
100
AcDbLine
 10
72.900806
 20
107.917237
 30
0.0
 11
72.432272
 21
107.917237
 31
0.0
  0
SPLINE
  5
1d9
100
AcDbEntity
  8
Layer_1
 62
7
100
AcDbSpline
 70
8
 71
3
 72
8
 73
4
 74
0
 40
0
 40
0
 40
0
 40
0
 40
1
 40
1
 40
1
 40
1
 10
72.432272
 20
107.917237
 30
0.0
 10
72.430578
 20
107.908036
 30
0.0
 10
72.428603
 20
107.883240
 30
0.0
 10
72.426768
 20
107.842820
 30
0.0
  0
SPLINE
  5
1da
100
AcDbEntity
  8
Layer_1
 62
7
100
AcDbSpline
 70
8
 71
3
 72
8
 73
4
 74
0
 40
0
 40
0
 40
0
 40
0
 40
1
 40
1
 40
1
 40
1
 10
72.426768
 20
107.842820
 30
0.0
 10
72.424793
 20
107.802395
 30
0.0
 10
72.422648
 20
107.756003
 30
0.0
 10
72.419882
 20
107.703640
 30
0.0
  0
SPLINE
  5
1db
100
AcDbEntity
  8
Layer_1
 62
7
100
AcDbSpline
 70
8
 71
3
 72
8
 73
4
 74
0
 40
0
 40
0
 40
0
 40
0
 40
1
 40
1
 40
1
 40
1
 10
72.419882
 20
107.703640
 30
0.0
 10
72.417060
 20
107.651271
 30
0.0
 10
72.413899
 20
107.552512
 30
0.0
 10
72.410230
 20
107.407360
 30
0.0
  0
LINE
  5
1dc
100
AcDbEntity
  8
Layer_1
 62
7
100
AcDbLine
 10
72.410230
 20
107.407360
 30
0.0
 11
72.401961
 21
107.407360
 31
0.0
  0
SPLINE
  5
1dd
100
AcDbEntity
  8
Layer_1
 62
7
100
AcDbSpline
 70
8
 71
3
 72
8
 73
4
 74
0
 40
0
 40
0
 40
0
 40
0
 40
1
 40
1
 40
1
 40
1
 10
72.401961
 20
107.407360
 30
0.0
 10
72.295394
 20
107.618657
 30
0.0
 10
72.173209
 20
107.765650
 30
0.0
 10
72.035402
 20
107.848332
 30
0.0
  0
SPLINE
  5
1de
100
AcDbEntity
  8
Layer_1
 62
7
100
AcDbSpline
 70
8
 71
3
 72
8
 73
4
 74
0
 40
0
 40
0
 40
0
 40
0
 40
1
 40
1
 40
1
 40
1
 10
72.035402
 20
107.848332
 30
0.0
 10
71.897602
 20
107.931012
 30
0.0
 10
71.729479
 20
107.972355
 30
0.0
 10
71.531040
 20
107.972358
 30
0.0
  0
SPLINE
  5
1df
100
AcDbEntity
  8
Layer_1
 62
7
100
AcDbSpline
 70
8
 71
3
 72
8
 73
4
 74
0
 40
0
 40
0
 40
0
 40
0
 40
1
 40
1
 40
1
 40
1
 10
71.531040
 20
107.972358
 30
0.0
 10
71.305045
 20
107.972355
 30
0.0
 10
71.126359
 20
107.927337
 30
0.0
 10
70.994985
 20
107.837309
 30
0.0
  0
SPLINE
  5
1e0
100
AcDbEntity
  8
Layer_1
 62
7
100
AcDbSpline
 70
8
 71
3
 72
8
 73
4
 74
0
 40
0
 40
0
 40
0
 40
0
 40
1
 40
1
 40
1
 40
1
 10
70.994985
 20
107.837309
 30
0.0
 10
70.863613
 20
107.747274
 30
0.0
 10
70.772204
 20
107.603959
 30
0.0
 10
70.720755
 20
107.407360
 30
0.0
  0
LINE
  5
1e1
100
AcDbEntity
  8
Layer_1
 62
7
100
AcDbLine
 10
70.720755
 20
107.407360
 30
0.0
 11
70.712486
 21
107.407360
 31
0.0
  0
SPLINE
  5
1e2
100
AcDbEntity
  8
Layer_1
 62
7
100
AcDbSpline
 70
8
 71
3
 72
8
 73
4
 74
0
 40
0
 40
0
 40
0
 40
0
 40
1
 40
1
 40
1
 40
1
 10
70.712486
 20
107.407360
 30
0.0
 10
70.609596
 20
107.607633
 30
0.0
 10
70.485113
 20
107.751869
 30
0.0
 10
70.339038
 20
107.840066
 30
0.0
  0
SPLINE
  5
1e3
100
AcDbEntity
  8
Layer_1
 62
7
100
AcDbSpline
 70
8
 71
3
 72
8
 73
4
 74
0
 40
0
 40
0
 40
0
 40
0
 40
1
 40
1
 40
1
 40
1
 10
70.339038
 20
107.840066
 30
0.0
 10
70.192968
 20
107.928258
 30
0.0
 10
70.016122
 20
107.972355
 30
0.0
 10
69.808494
 20
107.972358
 30
0.0
  0
SPLINE
  5
1e4
100
AcDbEntity
  8
Layer_1
 62
7
100
AcDbSpline
 70
8
 71
3
 72
8
 73
4
 74
0
 40
0
 40
0
 40
0
 40
0
 40
1
 40
1
 40
1
 40
1
 10
69.808494
 20
107.972358
 30
0.0
 10
69.507165
 20
107.972355
 30
0.0
 10
69.288059
 20
107.890589
 30
0.0
 10
69.151170
 20
107.727067
 30
0.0
  0
SPLINE
  5
1e5
100
AcDbEntity
  8
Layer_1
 62
7
100
AcDbSpline
 70
8
 71
3
 72
8
 73
4
 74
0
 40
0
 40
0
 40
0
 40
0
 40
1
 40
1
 40
1
 40
1
 10
69.151170
 20
107.727067
 30
0.0
 10
69.014290
 20
107.563536
 30
0.0
 10
68.945845
 20
107.295278
 30
0.0
 10
68.945842
 20
106.922291
 30
0.0
  0
LINE
  5
1e6
100
AcDbEntity
  8
Layer_1
 62
7
100
AcDbLine
 10
68.945842
 20
106.922291
 30
0.0
 11
68.945842
 21
104.935161
 31
0.0
  0
LINE
  5
1e7
100
AcDbEntity
  8
Layer_1
 62
7
100
AcDbLine
 10
68.945842
 20
104.935161
 30
0.0
 11
69.436424
 21
104.935161
 31
0.0
  0
LINE
  5
1e8
100
AcDbEntity
  8
Layer_1
 62
7
100
AcDbLine
 10
69.436424
 20
104.935161
 30
0.0
 11
69.436424
 21
106.825830
 31
0.0
  0
SPLINE
  5
1e9
100
AcDbEntity
  8
Layer_1
 62
7
100
AcDbSpline
 70
8
 71
3
 72
8
 73
4
 74
0
 40
0
 40
0
 40
0
 40
0
 40
1
 40
1
 40
1
 40
1
 10
69.436424
 20
106.825830
 30
0.0
 10
69.436426
 20
107.114298
 30
0.0
 10
69.475932
 20
107.313654
 30
0.0
 10
69.554934
 20
107.423898
 30
0.0
  0
SPLINE
  5
1ea
100
AcDbEntity
  8
Layer_1
 62
7
100
AcDbSpline
 70
8
 71
3
 72
8
 73
4
 74
0
 40
0
 40
0
 40
0
 40
0
 40
1
 40
1
 40
1
 40
1
 10
69.554934
 20
107.423898
 30
0.0
 10
69.633945
 20
107.534137
 30
0.0
 10
69.776343
 20
107.589261
 30
0.0
 10
69.982126
 20
107.589263
 30
0.0
  0
SPLINE
  5
1eb
100
AcDbEntity
  8
Layer_1
 62
7
100
AcDbSpline
 70
8
 71
3
 72
8
 73
4
 74
0
 40
0
 40
0
 40
0
 40
0
 40
1
 40
1
 40
1
 40
1
 10
69.982126
 20
107.589263
 30
0.0
 10
70.198940
 20
107.589261
 30
0.0
 10
70.367520
 20
107.508875
 30
0.0
 10
70.487865
 20
107.348105
 30
0.0
  0
SPLINE
  5
1ec
100
AcDbEntity
  8
Layer_1
 62
7
100
AcDbSpline
 70
8
 71
3
 72
8
 73
4
 74
0
 40
0
 40
0
 40
0
 40
0
 40
1
 40
1
 40
1
 40
1
 10
70.487865
 20
107.348105
 30
0.0
 10
70.608219
 20
107.187331
 30
0.0
 10
70.668391
 20
106.959039
 30
0.0
 10
70.668389
 20
106.663222
 30
0.0
  0
LINE
  5
1ed
100
AcDbEntity
  8
Layer_1
 62
7
100
AcDbLine
 10
70.668389
 20
106.663222
 30
0.0
 11
70.668389
 21
104.935161
 31
0.0
  0
LINE
  5
1ee
100
AcDbEntity
  8
Layer_1
 62
7
100
AcDbLine
 10
70.668389
 20
104.935161
 30
0.0
 11
71.158961
 21
104.935161
 31
0.0
  0
SPLINE
  5
1ef
100
AcDbEntity
  8
Layer_1
 62
7
100
AcDbSpline
 70
8
 71
3
 72
8
 73
4
 74
0
 40
0
 40
0
 40
0
 40
0
 40
1
 40
1
 40
1
 40
1
 10
67.427236
 20
104.880040
 30
0.0
 10
67.726730
 20
104.880040
 30
0.0
 10
67.951808
 20
104.959045
 30
0.0
 10
68.102475
 20
105.117062
 30
0.0
  0
SPLINE
  5
1f0
100
AcDbEntity
  8
Layer_1
 62
7
100
AcDbSpline
 70
8
 71
3
 72
8
 73
4
 74
0
 40
0
 40
0
 40
0
 40
0
 40
1
 40
1
 40
1
 40
1
 10
68.102475
 20
105.117062
 30
0.0
 10
68.253139
 20
105.275078
 30
0.0
 10
68.328473
 20
105.491887
 30
0.0
 10
68.328473
 20
105.767496
 30
0.0
  0
SPLINE
  5
1f1
100
AcDbEntity
  8
Layer_1
 62
7
100
AcDbSpline
 70
8
 71
3
 72
8
 73
4
 74
0
 40
0
 40
0
 40
0
 40
0
 40
1
 40
1
 40
1
 40
1
 10
68.328473
 20
105.767496
 30
0.0
 10
68.328473
 20
106.076174
 30
0.0
 10
68.226957
 20
106.313199
 30
0.0
 10
68.023927
 20
106.478564
 30
0.0
  0
SPLINE
  5
1f2
100
AcDbEntity
  8
Layer_1
 62
7
100
AcDbSpline
 70
8
 71
3
 72
8
 73
4
 74
0
 40
0
 40
0
 40
0
 40
0
 40
1
 40
1
 40
1
 40
1
 10
68.023927
 20
106.478564
 30
0.0
 10
67.820896
 20
106.643926
 30
0.0
 10
67.493383
 20
106.732121
 30
0.0
 10
67.041384
 20
106.743147
 30
0.0
  0
LINE
  5
1f3
100
AcDbEntity
  8
Layer_1
 62
7
100
AcDbLine
 10
67.041384
 20
106.743147
 30
0.0
 11
66.371657
 21
106.754182
 31
0.0
  0
LINE
  5
1f4
100
AcDbEntity
  8
Layer_1
 62
7
100
AcDbLine
 10
66.371657
 20
106.754182
 30
0.0
 11
66.371657
 21
106.916790
 31
0.0
  0
SPLINE
  5
1f5
100
AcDbEntity
  8
Layer_1
 62
7
100
AcDbSpline
 70
8
 71
3
 72
8
 73
4
 74
0
 40
0
 40
0
 40
0
 40
0
 40
1
 40
1
 40
1
 40
1
 10
66.371657
 20
106.916790
 30
0.0
 10
66.371660
 20
107.159323
 30
0.0
 10
66.423106
 20
107.332955
 30
0.0
 10
66.525999
 20
107.437690
 30
0.0
  0
SPLINE
  5
1f6
100
AcDbEntity
  8
Layer_1
 62
7
100
AcDbSpline
 70
8
 71
3
 72
8
 73
4
 74
0
 40
0
 40
0
 40
0
 40
0
 40
1
 40
1
 40
1
 40
1
 10
66.525999
 20
107.437690
 30
0.0
 10
66.628894
 20
107.542417
 30
0.0
 10
66.790582
 20
107.594784
 30
0.0
 10
67.011068
 20
107.594787
 30
0.0
  0
SPLINE
  5
1f7
100
AcDbEntity
  8
Layer_1
 62
7
100
AcDbSpline
 70
8
 71
3
 72
8
 73
4
 74
0
 40
0
 40
0
 40
0
 40
0
 40
1
 40
1
 40
1
 40
1
 10
67.011068
 20
107.594787
 30
0.0
 10
67.233391
 20
107.594784
 30
0.0
 10
67.395082
 20
107.557116
 30
0.0
 10
67.496137
 20
107.481788
 30
0.0
  0
SPLINE
  5
1f8
100
AcDbEntity
  8
Layer_1
 62
7
100
AcDbSpline
 70
8
 71
3
 72
8
 73
4
 74
0
 40
0
 40
0
 40
0
 40
0
 40
1
 40
1
 40
1
 40
1
 10
67.496137
 20
107.481788
 30
0.0
 10
67.597193
 20
107.406451
 30
0.0
 10
67.657828
 20
107.286103
 30
0.0
 10
67.678038
 20
107.120741
 30
0.0
  0
LINE
  5
1f9
100
AcDbEntity
  8
Layer_1
 62
7
100
AcDbLine
 10
67.678038
 20
107.120741
 30
0.0
 11
68.196181
 21
107.167595
 31
0.0
  0
SPLINE
  5
1fa
100
AcDbEntity
  8
Layer_1
 62
7
100
AcDbSpline
 70
8
 71
3
 72
8
 73
4
 74
0
 40
0
 40
0
 40
0
 40
0
 40
1
 40
1
 40
1
 40
1
 10
68.196181
 20
107.167595
 30
0.0
 10
68.111661
 20
107.704108
 30
0.0
 10
67.712949
 20
107.972366
 30
0.0
 10
67.000044
 20
107.972369
 30
0.0
  0
SPLINE
  5
1fb
100
AcDbEntity
  8
Layer_1
 62
7
100
AcDbSpline
 70
8
 71
3
 72
8
 73
4
 74
0
 40
0
 40
0
 40
0
 40
0
 40
1
 40
1
 40
1
 40
1
 10
67.000044
 20
107.972369
 30
0.0
 10
66.625219
 20
107.972366
 30
0.0
 10
66.343181
 20
107.886469
 30
0.0
 10
66.153928
 20
107.714675
 30
0.0
  0
SPLINE
  5
1fc
100
AcDbEntity
  8
Layer_1
 62
7
100
AcDbSpline
 70
8
 71
3
 72
8
 73
4
 74
0
 40
0
 40
0
 40
0
 40
0
 40
1
 40
1
 40
1
 40
1
 10
66.153928
 20
107.714675
 30
0.0
 10
65.964681
 20
107.542877
 30
0.0
 10
65.870055
 20
107.294372
 30
0.0
 10
65.870052
 20
106.969156
 30
0.0
  0
LINE
  5
1fd
100
AcDbEntity
  8
Layer_1
 62
7
100
AcDbLine
 10
65.870052
 20
106.969156
 30
0.0
 11
65.870052
 21
105.684825
 31
0.0
  0
SPLINE
  5
1fe
100
AcDbEntity
  8
Layer_1
 62
7
100
AcDbSpline
 70
8
 71
3
 72
8
 73
4
 74
0
 40
0
 40
0
 40
0
 40
0
 40
1
 40
1
 40
1
 40
1
 10
65.870052
 20
105.684825
 30
0.0
 10
65.870055
 20
105.537832
 30
0.0
 10
65.850748
 20
105.427131
 30
0.0
 10
65.812174
 20
105.352717
 30
0.0
  0
SPLINE
  5
1ff
100
AcDbEntity
  8
Layer_1
 62
7
100
AcDbSpline
 70
8
 71
3
 72
8
 73
4
 74
0
 40
0
 40
0
 40
0
 40
0
 40
1
 40
1
 40
1
 40
1
 10
65.812174
 20
105.352717
 30
0.0
 10
65.773591
 20
105.278304
 30
0.0
 10
65.700098
 20
105.241096
 30
0.0
 10
65.591688
 20
105.241096
 30
0.0
  0
SPLINE
  5
200
100
AcDbEntity
  8
Layer_1
 62
7
100
AcDbSpline
 70
8
 71
3
 72
8
 73
4
 74
0
 40
0
 40
0
 40
0
 40
0
 40
1
 40
1
 40
1
 40
1
 10
65.591688
 20
105.241096
 30
0.0
 10
65.543919
 20
105.241096
 30
0.0
 10
65.489715
 20
105.247530
 30
0.0
 10
65.429080
 20
105.260400
 30
0.0
  0
LINE
  5
201
100
AcDbEntity
  8
Layer_1
 62
7
100
AcDbLine
 10
65.429080
 20
105.260400
 30
0.0
 11
65.429080
 21
104.951719
 31
0.0
  0
SPLINE
  5
202
100
AcDbEntity
  8
Layer_1
 62
7
100
AcDbSpline
 70
8
 71
3
 72
8
 73
4
 74
0
 40
0
 40
0
 40
0
 40
0
 40
1
 40
1
 40
1
 40
1
 10
65.429080
 20
104.951719
 30
0.0
 10
65.554025
 20
104.922323
 30
0.0
 10
65.681722
 20
104.907622
 30
0.0
 10
65.812174
 20
104.907622
 30
0.0
  0
SPLINE
  5
203
100
AcDbEntity
  8
Layer_1
 62
7
100
AcDbSpline
 70
8
 71
3
 72
8
 73
4
 74
0
 40
0
 40
0
 40
0
 40
0
 40
1
 40
1
 40
1
 40
1
 10
65.812174
 20
104.907622
 30
0.0
 10
65.995915
 20
104.907622
 30
0.0
 10
66.129584
 20
104.955854
 30
0.0
 10
66.213183
 20
105.052317
 30
0.0
  0
SPLINE
  5
204
100
AcDbEntity
  8
Layer_1
 62
7
100
AcDbSpline
 70
8
 71
3
 72
8
 73
4
 74
0
 40
0
 40
0
 40
0
 40
0
 40
1
 40
1
 40
1
 40
1
 10
66.213183
 20
105.052317
 30
0.0
 10
66.296786
 20
105.148778
 30
0.0
 10
66.344098
 20
105.299905
 30
0.0
 10
66.355121
 20
105.505690
 30
0.0
  0
LINE
  5
205
100
AcDbEntity
  8
Layer_1
 62
7
100
AcDbLine
 10
66.355121
 20
105.505690
 30
0.0
 11
66.371660
 21
105.505690
 31
0.0
  0
SPLINE
  5
206
100
AcDbEntity
  8
Layer_1
 62
7
100
AcDbSpline
 70
8
 71
3
 72
8
 73
4
 74
0
 40
0
 40
0
 40
0
 40
0
 40
1
 40
1
 40
1
 40
1
 10
66.371660
 20
105.505690
 30
0.0
 10
66.498442
 20
105.277855
 30
0.0
 10
66.645892
 20
105.116624
 30
0.0
 10
66.814012
 20
105.022001
 30
0.0
  0
SPLINE
  5
207
100
AcDbEntity
  8
Layer_1
 62
7
100
AcDbSpline
 70
8
 71
3
 72
8
 73
4
 74
0
 40
0
 40
0
 40
0
 40
0
 40
1
 40
1
 40
1
 40
1
 10
66.814012
 20
105.022001
 30
0.0
 10
66.982132
 20
104.927375
 30
0.0
 10
67.186542
 20
104.880063
 30
0.0
 10
67.427238
 20
104.880063
 30
0.0
  0
LINE
  5
208
100
AcDbEntity
  8
Layer_1
 62
7
100
AcDbLine
 10
67.427238
 20
104.880063
 30
0.0
 11
67.427236
 21
104.880040
 31
0.0
  0
SPLINE
  5
209
100
AcDbEntity
  8
Layer_1
 62
7
100
AcDbSpline
 70
8
 71
3
 72
8
 73
4
 74
0
 40
0
 40
0
 40
0
 40
0
 40
1
 40
1
 40
1
 40
1
 10
67.314237
 20
105.252111
 30
0.0
 10
67.132336
 20
105.252111
 30
0.0
 10
66.970645
 20
105.293451
 30
0.0
 10
66.829167
 20
105.376133
 30
0.0
  0
SPLINE
  5
20a
100
AcDbEntity
  8
Layer_1
 62
7
100
AcDbSpline
 70
8
 71
3
 72
8
 73
4
 74
0
 40
0
 40
0
 40
0
 40
0
 40
1
 40
1
 40
1
 40
1
 10
66.829167
 20
105.376133
 30
0.0
 10
66.687689
 20
105.458816
 30
0.0
 10
66.576068
 20
105.572272
 30
0.0
 10
66.494302
 20
105.716507
 30
0.0
  0
SPLINE
  5
20b
100
AcDbEntity
  8
Layer_1
 62
7
100
AcDbSpline
 70
8
 71
3
 72
8
 73
4
 74
0
 40
0
 40
0
 40
0
 40
0
 40
1
 40
1
 40
1
 40
1
 10
66.494302
 20
105.716507
 30
0.0
 10
66.412542
 20
105.860743
 30
0.0
 10
66.371660
 20
106.009110
 30
0.0
 10
66.371657
 20
106.161614
 30
0.0
  0
LINE
  5
20c
100
AcDbEntity
  8
Layer_1
 62
7
100
AcDbLine
 10
66.371657
 20
106.161614
 30
0.0
 11
66.371657
 21
106.406905
 31
0.0
  0
LINE
  5
20d
100
AcDbEntity
  8
Layer_1
 62
7
100
AcDbLine
 10
66.371657
 20
106.406905
 30
0.0
 11
66.914604
 21
106.395870
 31
0.0
  0
SPLINE
  5
20e
100
AcDbEntity
  8
Layer_1
 62
7
100
AcDbSpline
 70
8
 71
3
 72
8
 73
4
 74
0
 40
0
 40
0
 40
0
 40
0
 40
1
 40
1
 40
1
 40
1
 10
66.914604
 20
106.395870
 30
0.0
 10
67.147954
 20
106.392201
 30
0.0
 10
67.324803
 20
106.368297
 30
0.0
 10
67.445148
 20
106.324211
 30
0.0
  0
SPLINE
  5
20f
100
AcDbEntity
  8
Layer_1
 62
7
100
AcDbSpline
 70
8
 71
3
 72
8
 73
4
 74
0
 40
0
 40
0
 40
0
 40
0
 40
1
 40
1
 40
1
 40
1
 10
67.445148
 20
106.324211
 30
0.0
 10
67.565499
 20
106.280114
 30
0.0
 10
67.657828
 20
106.212129
 30
0.0
 10
67.722135
 20
106.120263
 30
0.0
  0
SPLINE
  5
210
100
AcDbEntity
  8
Layer_1
 62
7
100
AcDbSpline
 70
8
 71
3
 72
8
 73
4
 74
0
 40
0
 40
0
 40
0
 40
0
 40
1
 40
1
 40
1
 40
1
 10
67.722135
 20
106.120263
 30
0.0
 10
67.786445
 20
106.028391
 30
0.0
 10
67.818599
 20
105.908043
 30
0.0
 10
67.818599
 20
105.759216
 30
0.0
  0
SPLINE
  5
211
100
AcDbEntity
  8
Layer_1
 62
7
100
AcDbSpline
 70
8
 71
3
 72
8
 73
4
 74
0
 40
0
 40
0
 40
0
 40
0
 40
1
 40
1
 40
1
 40
1
 10
67.818599
 20
105.759216
 30
0.0
 10
67.818599
 20
105.597525
 30
0.0
 10
67.774962
 20
105.472583
 30
0.0
 10
67.687684
 20
105.384391
 30
0.0
  0
SPLINE
  5
212
100
AcDbEntity
  8
Layer_1
 62
7
100
AcDbSpline
 70
8
 71
3
 72
8
 73
4
 74
0
 40
0
 40
0
 40
0
 40
0
 40
1
 40
1
 40
1
 40
1
 10
67.687684
 20
105.384391
 30
0.0
 10
67.600410
 20
105.296194
 30
0.0
 10
67.475927
 20
105.252099
 30
0.0
 10
67.314237
 20
105.252099
 30
0.0
  0
LINE
  5
213
100
AcDbEntity
  8
Layer_1
 62
7
100
AcDbLine
 10
67.314237
 20
105.252099
 30
0.0
 11
67.314237
 21
105.252111
 31
0.0
  0
SPLINE
  5
214
100
AcDbEntity
  8
Layer_1
 62
7
100
AcDbSpline
 70
8
 71
3
 72
8
 73
4
 74
0
 40
0
 40
0
 40
0
 40
0
 40
1
 40
1
 40
1
 40
1
 10
63.915993
 20
103.763829
 30
0.0
 10
64.241212
 20
103.763829
 30
0.0
 10
64.500284
 20
103.827679
 30
0.0
 10
64.693208
 20
103.955376
 30
0.0
  0
SPLINE
  5
215
100
AcDbEntity
  8
Layer_1
 62
7
100
AcDbSpline
 70
8
 71
3
 72
8
 73
4
 74
0
 40
0
 40
0
 40
0
 40
0
 40
1
 40
1
 40
1
 40
1
 10
64.693208
 20
103.955376
 30
0.0
 10
64.886132
 20
104.083076
 30
0.0
 10
65.010158
 20
104.264516
 30
0.0
 10
65.065278
 20
104.499701
 30
0.0
  0
LINE
  5
216
100
AcDbEntity
  8
Layer_1
 62
7
100
AcDbLine
 10
65.065278
 20
104.499701
 30
0.0
 11
64.566428
 21
104.571360
 31
0.0
  0
SPLINE
  5
217
100
AcDbEntity
  8
Layer_1
 62
7
100
AcDbSpline
 70
8
 71
3
 72
8
 73
4
 74
0
 40
0
 40
0
 40
0
 40
0
 40
1
 40
1
 40
1
 40
1
 10
64.566428
 20
104.571360
 30
0.0
 10
64.533354
 20
104.433556
 30
0.0
 10
64.460321
 20
104.327446
 30
0.0
 10
64.347319
 20
104.253033
 30
0.0
  0
SPLINE
  5
218
100
AcDbEntity
  8
Layer_1
 62
7
100
AcDbSpline
 70
8
 71
3
 72
8
 73
4
 74
0
 40
0
 40
0
 40
0
 40
0
 40
1
 40
1
 40
1
 40
1
 10
64.347319
 20
104.253033
 30
0.0
 10
64.234323
 20
104.178619
 30
0.0
 10
64.085953
 20
104.141411
 30
0.0
 10
63.902212
 20
104.141411
 30
0.0
  0
SPLINE
  5
219
100
AcDbEntity
  8
Layer_1
 62
7
100
AcDbSpline
 70
8
 71
3
 72
8
 73
4
 74
0
 40
0
 40
0
 40
0
 40
0
 40
1
 40
1
 40
1
 40
1
 10
63.902212
 20
104.141411
 30
0.0
 10
63.407959
 20
104.141411
 30
0.0
 10
63.160832
 20
104.430799
 30
0.0
 10
63.160829
 20
105.009575
 30
0.0
  0
LINE
  5
21a
100
AcDbEntity
  8
Layer_1
 62
7
100
AcDbLine
 10
63.160829
 20
105.009575
 30
0.0
 11
63.160829
 21
105.489132
 31
0.0
  0
LINE
  5
21b
100
AcDbEntity
  8
Layer_1
 62
7
100
AcDbLine
 10
63.160829
 20
105.489132
 30
0.0
 11
63.166332
 21
105.489132
 31
0.0
  0
SPLINE
  5
21c
100
AcDbEntity
  8
Layer_1
 62
7
100
AcDbSpline
 70
8
 71
3
 72
8
 73
4
 74
0
 40
0
 40
0
 40
0
 40
0
 40
1
 40
1
 40
1
 40
1
 10
63.166332
 20
105.489132
 30
0.0
 10
63.260041
 20
105.298045
 30
0.0
 10
63.388658
 20
105.154270
 30
0.0
 10
63.552183
 20
105.057806
 30
0.0
  0
SPLINE
  5
21d
100
AcDbEntity
  8
Layer_1
 62
7
100
AcDbSpline
 70
8
 71
3
 72
8
 73
4
 74
0
 40
0
 40
0
 40
0
 40
0
 40
1
 40
1
 40
1
 40
1
 10
63.552183
 20
105.057806
 30
0.0
 10
63.715711
 20
104.961343
 30
0.0
 10
63.906798
 20
104.913111
 30
0.0
 10
64.125447
 20
104.913111
 30
0.0
  0
SPLINE
  5
21e
100
AcDbEntity
  8
Layer_1
 62
7
100
AcDbSpline
 70
8
 71
3
 72
8
 73
4
 74
0
 40
0
 40
0
 40
0
 40
0
 40
1
 40
1
 40
1
 40
1
 10
64.125447
 20
104.913111
 30
0.0
 10
64.491089
 20
104.913111
 30
0.0
 10
64.759804
 20
105.034379
 30
0.0
 10
64.931598
 20
105.276915
 30
0.0
  0
SPLINE
  5
21f
100
AcDbEntity
  8
Layer_1
 62
7
100
AcDbSpline
 70
8
 71
3
 72
8
 73
4
 74
0
 40
0
 40
0
 40
0
 40
0
 40
1
 40
1
 40
1
 40
1
 10
64.931598
 20
105.276915
 30
0.0
 10
65.103395
 20
105.519449
 30
0.0
 10
65.189292
 20
105.900705
 30
0.0
 10
65.189292
 20
106.420686
 30
0.0
  0
SPLINE
  5
220
100
AcDbEntity
  8
Layer_1
 62
7
100
AcDbSpline
 70
8
 71
3
 72
8
 73
4
 74
0
 40
0
 40
0
 40
0
 40
0
 40
1
 40
1
 40
1
 40
1
 10
65.189292
 20
106.420686
 30
0.0
 10
65.189292
 20
106.948012
 30
0.0
 10
65.096963
 20
107.337078
 30
0.0
 10
64.912305
 20
107.587883
 30
0.0
  0
SPLINE
  5
221
100
AcDbEntity
  8
Layer_1
 62
7
100
AcDbSpline
 70
8
 71
3
 72
8
 73
4
 74
0
 40
0
 40
0
 40
0
 40
0
 40
1
 40
1
 40
1
 40
1
 10
64.912305
 20
107.587883
 30
0.0
 10
64.727650
 20
107.838683
 30
0.0
 10
64.446992
 20
107.964086
 30
0.0
 10
64.070327
 20
107.964088
 30
0.0
  0
SPLINE
  5
222
100
AcDbEntity
  8
Layer_1
 62
7
100
AcDbSpline
 70
8
 71
3
 72
8
 73
4
 74
0
 40
0
 40
0
 40
0
 40
0
 40
1
 40
1
 40
1
 40
1
 10
64.070327
 20
107.964088
 30
0.0
 10
63.859027
 20
107.964086
 30
0.0
 10
63.675749
 20
107.915854
 30
0.0
 10
63.520487
 20
107.819396
 30
0.0
  0
SPLINE
  5
223
100
AcDbEntity
  8
Layer_1
 62
7
100
AcDbSpline
 70
8
 71
3
 72
8
 73
4
 74
0
 40
0
 40
0
 40
0
 40
0
 40
1
 40
1
 40
1
 40
1
 10
63.520487
 20
107.819396
 30
0.0
 10
63.365231
 20
107.722930
 30
0.0
 10
63.245343
 20
107.585586
 30
0.0
 10
63.160820
 20
107.407360
 30
0.0
  0
LINE
  5
224
100
AcDbEntity
  8
Layer_1
 62
7
100
AcDbLine
 10
63.160820
 20
107.407360
 30
0.0
 11
63.155317
 21
107.407360
 31
0.0
  0
SPLINE
  5
225
100
AcDbEntity
  8
Layer_1
 62
7
100
AcDbSpline
 70
8
 71
3
 72
8
 73
4
 74
0
 40
0
 40
0
 40
0
 40
0
 40
1
 40
1
 40
1
 40
1
 10
63.155317
 20
107.407360
 30
0.0
 10
63.155320
 20
107.462481
 30
0.0
 10
63.151648
 20
107.558024
 30
0.0
 10
63.144282
 20
107.693993
 30
0.0
  0
SPLINE
  5
226
100
AcDbEntity
  8
Layer_1
 62
7
100
AcDbSpline
 70
8
 71
3
 72
8
 73
4
 74
0
 40
0
 40
0
 40
0
 40
0
 40
1
 40
1
 40
1
 40
1
 10
63.144282
 20
107.693993
 30
0.0
 10
63.136944
 20
107.829957
 30
0.0
 10
63.129578
 20
107.904370
 30
0.0
 10
63.122240
 20
107.917237
 30
0.0
  0
LINE
  5
227
100
AcDbEntity
  8
Layer_1
 62
7
100
AcDbLine
 10
63.122240
 20
107.917237
 30
0.0
 11
62.650952
 21
107.917237
 31
0.0
  0
SPLINE
  5
228
100
AcDbEntity
  8
Layer_1
 62
7
100
AcDbSpline
 70
8
 71
3
 72
8
 73
4
 74
0
 40
0
 40
0
 40
0
 40
0
 40
1
 40
1
 40
1
 40
1
 10
62.650952
 20
107.917237
 30
0.0
 10
62.661987
 20
107.818013
 30
0.0
 10
62.667490
 20
107.612228
 30
0.0
 10
62.667490
 20
107.299876
 30
0.0
  0
LINE
  5
229
100
AcDbEntity
  8
Layer_1
 62
7
100
AcDbLine
 10
62.667490
 20
107.299876
 30
0.0
 11
62.667490
 21
105.020598
 31
0.0
  0
SPLINE
  5
22a
100
AcDbEntity
  8
Layer_1
 62
7
100
AcDbSpline
 70
8
 71
3
 72
8
 73
4
 74
0
 40
0
 40
0
 40
0
 40
0
 40
1
 40
1
 40
1
 40
1
 10
62.667490
 20
105.020598
 30
0.0
 10
62.667493
 20
104.182754
 30
0.0
 10
63.083661
 20
103.763829
 30
0.0
 10
63.915993
 20
103.763829
 30
0.0
  0
LINE
  5
22b
100
AcDbEntity
  8
Layer_1
 62
7
100
AcDbLine
 10
63.915993
 20
103.763829
 30
0.0
 11
63.915993
 21
103.763829
 31
0.0
  0
SPLINE
  5
22c
100
AcDbEntity
  8
Layer_1
 62
7
100
AcDbSpline
 70
8
 71
3
 72
8
 73
4
 74
0
 40
0
 40
0
 40
0
 40
0
 40
1
 40
1
 40
1
 40
1
 10
63.160829
 20
106.426197
 30
0.0
 10
63.160832
 20
106.668731
 30
0.0
 10
63.193905
 20
106.877733
 30
0.0
 10
63.260047
 20
107.053205
 30
0.0
  0
SPLINE
  5
22d
100
AcDbEntity
  8
Layer_1
 62
7
100
AcDbSpline
 70
8
 71
3
 72
8
 73
4
 74
0
 40
0
 40
0
 40
0
 40
0
 40
1
 40
1
 40
1
 40
1
 10
63.260047
 20
107.053205
 30
0.0
 10
63.326197
 20
107.228674
 30
0.0
 10
63.419443
 20
107.362803
 30
0.0
 10
63.539788
 20
107.455592
 30
0.0
  0
SPLINE
  5
22e
100
AcDbEntity
  8
Layer_1
 62
7
100
AcDbSpline
 70
8
 71
3
 72
8
 73
4
 74
0
 40
0
 40
0
 40
0
 40
0
 40
1
 40
1
 40
1
 40
1
 10
63.539788
 20
107.455592
 30
0.0
 10
63.660139
 20
107.548378
 30
0.0
 10
63.796565
 20
107.594772
 30
0.0
 10
63.949067
 20
107.594775
 30
0.0
  0
SPLINE
  5
22f
100
AcDbEntity
  8
Layer_1
 62
7
100
AcDbSpline
 70
8
 71
3
 72
8
 73
4
 74
0
 40
0
 40
0
 40
0
 40
0
 40
1
 40
1
 40
1
 40
1
 10
63.949067
 20
107.594775
 30
0.0
 10
64.202627
 20
107.594772
 30
0.0
 10
64.387285
 20
107.502903
 30
0.0
 10
64.503038
 20
107.319166
 30
0.0
  0
SPLINE
  5
230
100
AcDbEntity
  8
Layer_1
 62
7
100
AcDbSpline
 70
8
 71
3
 72
8
 73
4
 74
0
 40
0
 40
0
 40
0
 40
0
 40
1
 40
1
 40
1
 40
1
 10
64.503038
 20
107.319166
 30
0.0
 10
64.618794
 20
107.135428
 30
0.0
 10
64.676672
 20
106.837771
 30
0.0
 10
64.676670
 20
106.426197
 30
0.0
  0
SPLINE
  5
231
100
AcDbEntity
  8
Layer_1
 62
7
100
AcDbSpline
 70
8
 71
3
 72
8
 73
4
 74
0
 40
0
 40
0
 40
0
 40
0
 40
1
 40
1
 40
1
 40
1
 10
64.676670
 20
106.426197
 30
0.0
 10
64.676672
 20
106.018299
 30
0.0
 10
64.622469
 20
105.725236
 30
0.0
 10
64.514062
 20
105.547010
 30
0.0
  0
SPLINE
  5
232
100
AcDbEntity
  8
Layer_1
 62
7
100
AcDbSpline
 70
8
 71
3
 72
8
 73
4
 74
0
 40
0
 40
0
 40
0
 40
0
 40
1
 40
1
 40
1
 40
1
 10
64.514062
 20
105.547010
 30
0.0
 10
64.405657
 20
105.368784
 30
0.0
 10
64.220082
 20
105.279670
 30
0.0
 10
63.957336
 20
105.279670
 30
0.0
  0
SPLINE
  5
233
100
AcDbEntity
  8
Layer_1
 62
7
100
AcDbSpline
 70
8
 71
3
 72
8
 73
4
 74
0
 40
0
 40
0
 40
0
 40
0
 40
1
 40
1
 40
1
 40
1
 10
63.957336
 20
105.279670
 30
0.0
 10
63.801160
 20
105.279670
 30
0.0
 10
63.662436
 20
105.325604
 30
0.0
 10
63.541168
 20
105.417473
 30
0.0
  0
SPLINE
  5
234
100
AcDbEntity
  8
Layer_1
 62
7
100
AcDbSpline
 70
8
 71
3
 72
8
 73
4
 74
0
 40
0
 40
0
 40
0
 40
0
 40
1
 40
1
 40
1
 40
1
 10
63.541168
 20
105.417473
 30
0.0
 10
63.419903
 20
105.509342
 30
0.0
 10
63.326197
 20
105.641174
 30
0.0
 10
63.260047
 20
105.812971
 30
0.0
  0
SPLINE
  5
235
100
AcDbEntity
  8
Layer_1
 62
7
100
AcDbSpline
 70
8
 71
3
 72
8
 73
4
 74
0
 40
0
 40
0
 40
0
 40
0
 40
1
 40
1
 40
1
 40
1
 10
63.260047
 20
105.812971
 30
0.0
 10
63.193905
 20
105.984765
 30
0.0
 10
63.160832
 20
106.189173
 30
0.0
 10
63.160829
 20
106.426197
 30
0.0
  0
LINE
  5
236
100
AcDbEntity
  8
Layer_1
 62
7
100
AcDbLine
 10
63.160829
 20
106.426197
 30
0.0
 11
63.160829
 21
106.426197
 31
0.0
  0
SPLINE
  5
237
100
AcDbEntity
  8
Layer_1
 62
7
100
AcDbSpline
 70
8
 71
3
 72
8
 73
4
 74
0
 40
0
 40
0
 40
0
 40
0
 40
1
 40
1
 40
1
 40
1
 10
61.523720
 20
106.321468
 30
0.0
 10
61.523720
 20
105.979713
 30
0.0
 10
61.452981
 20
105.716047
 30
0.0
 10
61.311503
 20
105.530472
 30
0.0
  0
SPLINE
  5
238
100
AcDbEntity
  8
Layer_1
 62
7
100
AcDbSpline
 70
8
 71
3
 72
8
 73
4
 74
0
 40
0
 40
0
 40
0
 40
0
 40
1
 40
1
 40
1
 40
1
 10
61.311503
 20
105.530472
 30
0.0
 10
61.170025
 20
105.344897
 30
0.0
 10
60.963319
 20
105.252111
 30
0.0
 10
60.691384
 20
105.252111
 30
0.0
  0
SPLINE
  5
239
100
AcDbEntity
  8
Layer_1
 62
7
100
AcDbSpline
 70
8
 71
3
 72
8
 73
4
 74
0
 40
0
 40
0
 40
0
 40
0
 40
1
 40
1
 40
1
 40
1
 10
60.691384
 20
105.252111
 30
0.0
 10
60.476413
 20
105.252111
 30
0.0
 10
60.304158
 20
105.295288
 30
0.0
 10
60.174621
 20
105.381645
 30
0.0
  0
SPLINE
  5
23a
100
AcDbEntity
  8
Layer_1
 62
7
100
AcDbSpline
 70
8
 71
3
 72
8
 73
4
 74
0
 40
0
 40
0
 40
0
 40
0
 40
1
 40
1
 40
1
 40
1
 10
60.174621
 20
105.381645
 30
0.0
 10
60.045087
 20
105.468002
 30
0.0
 10
59.957352
 20
105.577327
 30
0.0
 10
59.911415
 20
105.709618
 30
0.0
  0
LINE
  5
23b
100
AcDbEntity
  8
Layer_1
 62
7
100
AcDbLine
 10
59.911415
 20
105.709618
 30
0.0
 11
59.475955
 21
105.585596
 31
0.0
  0
SPLINE
  5
23c
100
AcDbEntity
  8
Layer_1
 62
7
100
AcDbSpline
 70
8
 71
3
 72
8
 73
4
 74
0
 40
0
 40
0
 40
0
 40
0
 40
1
 40
1
 40
1
 40
1
 10
59.475955
 20
105.585596
 30
0.0
 10
59.654184
 20
105.115224
 30
0.0
 10
60.059325
 20
104.880040
 30
0.0
 10
60.691384
 20
104.880040
 30
0.0
  0
SPLINE
  5
23d
100
AcDbEntity
  8
Layer_1
 62
7
100
AcDbSpline
 70
8
 71
3
 72
8
 73
4
 74
0
 40
0
 40
0
 40
0
 40
0
 40
1
 40
1
 40
1
 40
1
 10
60.691384
 20
104.880040
 30
0.0
 10
61.132356
 20
104.880040
 30
0.0
 10
61.468139
 20
105.011412
 30
0.0
 10
61.698731
 20
105.274158
 30
0.0
  0
SPLINE
  5
23e
100
AcDbEntity
  8
Layer_1
 62
7
100
AcDbSpline
 70
8
 71
3
 72
8
 73
4
 74
0
 40
0
 40
0
 40
0
 40
0
 40
1
 40
1
 40
1
 40
1
 10
61.698731
 20
105.274158
 30
0.0
 10
61.929321
 20
105.536904
 30
0.0
 10
62.044617
 20
105.927347
 30
0.0
 10
62.044617
 20
106.445490
 30
0.0
  0
SPLINE
  5
23f
100
AcDbEntity
  8
Layer_1
 62
7
100
AcDbSpline
 70
8
 71
3
 72
8
 73
4
 74
0
 40
0
 40
0
 40
0
 40
0
 40
1
 40
1
 40
1
 40
1
 10
62.044617
 20
106.445490
 30
0.0
 10
62.044617
 20
106.937909
 30
0.0
 10
61.929321
 20
107.315491
 30
0.0
 10
61.698731
 20
107.578237
 30
0.0
  0
SPLINE
  5
240
100
AcDbEntity
  8
Layer_1
 62
7
100
AcDbSpline
 70
8
 71
3
 72
8
 73
4
 74
0
 40
0
 40
0
 40
0
 40
0
 40
1
 40
1
 40
1
 40
1
 10
61.698731
 20
107.578237
 30
0.0
 10
61.468139
 20
107.840980
 30
0.0
 10
61.138788
 20
107.972355
 30
0.0
 10
60.710677
 20
107.972358
 30
0.0
  0
SPLINE
  5
241
100
AcDbEntity
  8
Layer_1
 62
7
100
AcDbSpline
 70
8
 71
3
 72
8
 73
4
 74
0
 40
0
 40
0
 40
0
 40
0
 40
1
 40
1
 40
1
 40
1
 10
60.710677
 20
107.972358
 30
0.0
 10
59.834247
 20
107.972355
 30
0.0
 10
59.396032
 20
107.444105
 30
0.0
 10
59.396029
 20
106.387612
 30
0.0
  0
LINE
  5
242
100
AcDbEntity
  8
Layer_1
 62
7
100
AcDbLine
 10
59.396029
 20
106.387612
 30
0.0
 11
59.396029
 21
106.321468
 31
0.0
  0
LINE
  5
243
100
AcDbEntity
  8
Layer_1
 62
7
100
AcDbLine
 10
59.396029
 20
106.321468
 30
0.0
 11
61.523720
 21
106.321468
 31
0.0
  0
SPLINE
  5
244
100
AcDbEntity
  8
Layer_1
 62
7
100
AcDbSpline
 70
8
 71
3
 72
8
 73
4
 74
0
 40
0
 40
0
 40
0
 40
0
 40
1
 40
1
 40
1
 40
1
 10
59.908658
 20
106.701804
 30
0.0
 10
59.936231
 20
107.015997
 30
0.0
 10
60.016148
 20
107.245209
 30
0.0
 10
60.148437
 20
107.389447
 30
0.0
  0
SPLINE
  5
245
100
AcDbEntity
  8
Layer_1
 62
7
100
AcDbSpline
 70
8
 71
3
 72
8
 73
4
 74
0
 40
0
 40
0
 40
0
 40
0
 40
1
 40
1
 40
1
 40
1
 10
60.148437
 20
107.389447
 30
0.0
 10
60.280731
 20
107.533680
 30
0.0
 10
60.470901
 20
107.605796
 30
0.0
 10
60.718946
 20
107.605799
 30
0.0
  0
SPLINE
  5
246
100
AcDbEntity
  8
Layer_1
 62
7
100
AcDbSpline
 70
8
 71
3
 72
8
 73
4
 74
0
 40
0
 40
0
 40
0
 40
0
 40
1
 40
1
 40
1
 40
1
 10
60.718946
 20
107.605799
 30
0.0
 10
60.959645
 20
107.605796
 30
0.0
 10
61.150272
 20
107.525411
 30
0.0
 10
61.290830
 20
107.364643
 30
0.0
  0
SPLINE
  5
247
100
AcDbEntity
  8
Layer_1
 62
7
100
AcDbSpline
 70
8
 71
3
 72
8
 73
4
 74
0
 40
0
 40
0
 40
0
 40
0
 40
1
 40
1
 40
1
 40
1
 10
61.290830
 20
107.364643
 30
0.0
 10
61.431391
 20
107.203869
 30
0.0
 10
61.507184
 20
106.982923
 30
0.0
 10
61.518208
 20
106.701804
 30
0.0
  0
LINE
  5
248
100
AcDbEntity
  8
Layer_1
 62
7
100
AcDbLine
 10
61.518208
 20
106.701804
 30
0.0
 11
59.908658
 21
106.701804
 31
0.0
  0
SPLINE
  5
249
100
AcDbEntity
  8
Layer_1
 62
7
100
AcDbSpline
 70
8
 71
3
 72
8
 73
4
 74
0
 40
0
 40
0
 40
0
 40
0
 40
1
 40
1
 40
1
 40
1
 10
58.381793
 20
106.321468
 30
0.0
 10
58.381793
 20
105.979713
 30
0.0
 10
58.311054
 20
105.716047
 30
0.0
 10
58.169573
 20
105.530472
 30
0.0
  0
SPLINE
  5
24a
100
AcDbEntity
  8
Layer_1
 62
7
100
AcDbSpline
 70
8
 71
3
 72
8
 73
4
 74
0
 40
0
 40
0
 40
0
 40
0
 40
1
 40
1
 40
1
 40
1
 10
58.169573
 20
105.530472
 30
0.0
 10
58.028098
 20
105.344897
 30
0.0
 10
57.821390
 20
105.252111
 30
0.0
 10
57.549458
 20
105.252111
 30
0.0
  0
SPLINE
  5
24b
100
AcDbEntity
  8
Layer_1
 62
7
100
AcDbSpline
 70
8
 71
3
 72
8
 73
4
 74
0
 40
0
 40
0
 40
0
 40
0
 40
1
 40
1
 40
1
 40
1
 10
57.549458
 20
105.252111
 30
0.0
 10
57.334486
 20
105.252111
 30
0.0
 10
57.162229
 20
105.295288
 30
0.0
 10
57.032692
 20
105.381645
 30
0.0
  0
SPLINE
  5
24c
100
AcDbEntity
  8
Layer_1
 62
7
100
AcDbSpline
 70
8
 71
3
 72
8
 73
4
 74
0
 40
0
 40
0
 40
0
 40
0
 40
1
 40
1
 40
1
 40
1
 10
57.032692
 20
105.381645
 30
0.0
 10
56.903161
 20
105.468002
 30
0.0
 10
56.815423
 20
105.577327
 30
0.0
 10
56.769489
 20
105.709618
 30
0.0
  0
LINE
  5
24d
100
AcDbEntity
  8
Layer_1
 62
7
100
AcDbLine
 10
56.769489
 20
105.709618
 30
0.0
 11
56.334028
 21
105.585596
 31
0.0
  0
SPLINE
  5
24e
100
AcDbEntity
  8
Layer_1
 62
7
100
AcDbSpline
 70
8
 71
3
 72
8
 73
4
 74
0
 40
0
 40
0
 40
0
 40
0
 40
1
 40
1
 40
1
 40
1
 10
56.334028
 20
105.585596
 30
0.0
 10
56.512257
 20
105.115224
 30
0.0
 10
56.917399
 20
104.880040
 30
0.0
 10
57.549458
 20
104.880040
 30
0.0
  0
SPLINE
  5
24f
100
AcDbEntity
  8
Layer_1
 62
7
100
AcDbSpline
 70
8
 71
3
 72
8
 73
4
 74
0
 40
0
 40
0
 40
0
 40
0
 40
1
 40
1
 40
1
 40
1
 10
57.549458
 20
104.880040
 30
0.0
 10
57.990430
 20
104.880040
 30
0.0
 10
58.326212
 20
105.011412
 30
0.0
 10
58.556802
 20
105.274158
 30
0.0
  0
SPLINE
  5
250
100
AcDbEntity
  8
Layer_1
 62
7
100
AcDbSpline
 70
8
 71
3
 72
8
 73
4
 74
0
 40
0
 40
0
 40
0
 40
0
 40
1
 40
1
 40
1
 40
1
 10
58.556802
 20
105.274158
 30
0.0
 10
58.787395
 20
105.536904
 30
0.0
 10
58.902691
 20
105.927347
 30
0.0
 10
58.902691
 20
106.445490
 30
0.0
  0
SPLINE
  5
251
100
AcDbEntity
  8
Layer_1
 62
7
100
AcDbSpline
 70
8
 71
3
 72
8
 73
4
 74
0
 40
0
 40
0
 40
0
 40
0
 40
1
 40
1
 40
1
 40
1
 10
58.902691
 20
106.445490
 30
0.0
 10
58.902691
 20
106.937909
 30
0.0
 10
58.787395
 20
107.315491
 30
0.0
 10
58.556802
 20
107.578237
 30
0.0
  0
SPLINE
  5
252
100
AcDbEntity
  8
Layer_1
 62
7
100
AcDbSpline
 70
8
 71
3
 72
8
 73
4
 74
0
 40
0
 40
0
 40
0
 40
0
 40
1
 40
1
 40
1
 40
1
 10
58.556802
 20
107.578237
 30
0.0
 10
58.326212
 20
107.840980
 30
0.0
 10
57.996862
 20
107.972355
 30
0.0
 10
57.568751
 20
107.972358
 30
0.0
  0
SPLINE
  5
253
100
AcDbEntity
  8
Layer_1
 62
7
100
AcDbSpline
 70
8
 71
3
 72
8
 73
4
 74
0
 40
0
 40
0
 40
0
 40
0
 40
1
 40
1
 40
1
 40
1
 10
57.568751
 20
107.972358
 30
0.0
 10
56.692321
 20
107.972355
 30
0.0
 10
56.254103
 20
107.444105
 30
0.0
 10
56.254100
 20
106.387612
 30
0.0
  0
LINE
  5
254
100
AcDbEntity
  8
Layer_1
 62
7
100
AcDbLine
 10
56.254100
 20
106.387612
 30
0.0
 11
56.254100
 21
106.321468
 31
0.0
  0
LINE
  5
255
100
AcDbEntity
  8
Layer_1
 62
7
100
AcDbLine
 10
56.254100
 20
106.321468
 30
0.0
 11
58.381793
 21
106.321468
 31
0.0
  0
SPLINE
  5
256
100
AcDbEntity
  8
Layer_1
 62
7
100
AcDbSpline
 70
8
 71
3
 72
8
 73
4
 74
0
 40
0
 40
0
 40
0
 40
0
 40
1
 40
1
 40
1
 40
1
 10
56.766731
 20
106.701804
 30
0.0
 10
56.794305
 20
107.015997
 30
0.0
 10
56.874221
 20
107.245209
 30
0.0
 10
57.006510
 20
107.389447
 30
0.0
  0
SPLINE
  5
257
100
AcDbEntity
  8
Layer_1
 62
7
100
AcDbSpline
 70
8
 71
3
 72
8
 73
4
 74
0
 40
0
 40
0
 40
0
 40
0
 40
1
 40
1
 40
1
 40
1
 10
57.006510
 20
107.389447
 30
0.0
 10
57.138805
 20
107.533680
 30
0.0
 10
57.328972
 20
107.605796
 30
0.0
 10
57.577017
 20
107.605799
 30
0.0
  0
SPLINE
  5
258
100
AcDbEntity
  8
Layer_1
 62
7
100
AcDbSpline
 70
8
 71
3
 72
8
 73
4
 74
0
 40
0
 40
0
 40
0
 40
0
 40
1
 40
1
 40
1
 40
1
 10
57.577017
 20
107.605799
 30
0.0
 10
57.817716
 20
107.605796
 30
0.0
 10
58.008346
 20
107.525411
 30
0.0
 10
58.148904
 20
107.364643
 30
0.0
  0
SPLINE
  5
259
100
AcDbEntity
  8
Layer_1
 62
7
100
AcDbSpline
 70
8
 71
3
 72
8
 73
4
 74
0
 40
0
 40
0
 40
0
 40
0
 40
1
 40
1
 40
1
 40
1
 10
58.148904
 20
107.364643
 30
0.0
 10
58.289464
 20
107.203869
 30
0.0
 10
58.365258
 20
106.982923
 30
0.0
 10
58.376282
 20
106.701804
 30
0.0
  0
LINE
  5
25a
100
AcDbEntity
  8
Layer_1
 62
7
100
AcDbLine
 10
58.376282
 20
106.701804
 30
0.0
 11
56.766731
 21
106.701804
 31
0.0
  0
SPLINE
  5
25b
100
AcDbEntity
  8
Layer_1
 62
7
100
AcDbSpline
 70
8
 71
3
 72
8
 73
4
 74
0
 40
0
 40
0
 40
0
 40
0
 40
1
 40
1
 40
1
 40
1
 10
55.242621
 20
106.439978
 30
0.0
 10
55.242621
 20
106.043103
 30
0.0
 10
55.180152
 20
105.749121
 30
0.0
 10
55.055209
 20
105.558034
 30
0.0
  0
SPLINE
  5
25c
100
AcDbEntity
  8
Layer_1
 62
7
100
AcDbSpline
 70
8
 71
3
 72
8
 73
4
 74
0
 40
0
 40
0
 40
0
 40
0
 40
1
 40
1
 40
1
 40
1
 10
55.055209
 20
105.558034
 30
0.0
 10
54.930266
 20
105.366947
 30
0.0
 10
54.741937
 20
105.271401
 30
0.0
 10
54.490211
 20
105.271403
 30
0.0
  0
SPLINE
  5
25d
100
AcDbEntity
  8
Layer_1
 62
7
100
AcDbSpline
 70
8
 71
3
 72
8
 73
4
 74
0
 40
0
 40
0
 40
0
 40
0
 40
1
 40
1
 40
1
 40
1
 10
54.490211
 20
105.271403
 30
0.0
 10
54.313825
 20
105.271401
 30
0.0
 10
54.166375
 20
105.319175
 30
0.0
 10
54.047862
 20
105.414719
 30
0.0
  0
SPLINE
  5
25e
100
AcDbEntity
  8
Layer_1
 62
7
100
AcDbSpline
 70
8
 71
3
 72
8
 73
4
 74
0
 40
0
 40
0
 40
0
 40
0
 40
1
 40
1
 40
1
 40
1
 10
54.047862
 20
105.414719
 30
0.0
 10
53.929354
 20
105.510262
 30
0.0
 10
53.856318
 20
105.657252
 30
0.0
 10
53.828753
 20
105.855691
 30
0.0
  0
LINE
  5
25f
100
AcDbEntity
  8
Layer_1
 62
7
100
AcDbLine
 10
53.828753
 20
105.855691
 30
0.0
 11
53.327148
 21
105.822617
 31
0.0
  0
SPLINE
  5
260
100
AcDbEntity
  8
Layer_1
 62
7
100
AcDbSpline
 70
8
 71
3
 72
8
 73
4
 74
0
 40
0
 40
0
 40
0
 40
0
 40
1
 40
1
 40
1
 40
1
 10
53.327148
 20
105.822617
 30
0.0
 10
53.365736
 20
105.535984
 30
0.0
 10
53.487922
 20
105.307232
 30
0.0
 10
53.693707
 20
105.136354
 30
0.0
  0
SPLINE
  5
261
100
AcDbEntity
  8
Layer_1
 62
7
100
AcDbSpline
 70
8
 71
3
 72
8
 73
4
 74
0
 40
0
 40
0
 40
0
 40
0
 40
1
 40
1
 40
1
 40
1
 10
53.693707
 20
105.136354
 30
0.0
 10
53.899495
 20
104.965477
 30
0.0
 10
54.160404
 20
104.880040
 30
0.0
 10
54.476433
 20
104.880040
 30
0.0
  0
SPLINE
  5
262
100
AcDbEntity
  8
Layer_1
 62
7
100
AcDbSpline
 70
8
 71
3
 72
8
 73
4
 74
0
 40
0
 40
0
 40
0
 40
0
 40
1
 40
1
 40
1
 40
1
 10
54.476433
 20
104.880040
 30
0.0
 10
54.893518
 20
104.880040
 30
0.0
 10
55.211845
 20
105.011872
 30
0.0
 10
55.431411
 20
105.275535
 30
0.0
  0
SPLINE
  5
263
100
AcDbEntity
  8
Layer_1
 62
7
100
AcDbSpline
 70
8
 71
3
 72
8
 73
4
 74
0
 40
0
 40
0
 40
0
 40
0
 40
1
 40
1
 40
1
 40
1
 10
55.431411
 20
105.275535
 30
0.0
 10
55.650980
 20
105.539201
 30
0.0
 10
55.760764
 20
105.923673
 30
0.0
 10
55.760764
 20
106.428955
 30
0.0
  0
SPLINE
  5
264
100
AcDbEntity
  8
Layer_1
 62
7
100
AcDbSpline
 70
8
 71
3
 72
8
 73
4
 74
0
 40
0
 40
0
 40
0
 40
0
 40
1
 40
1
 40
1
 40
1
 10
55.760764
 20
106.428955
 30
0.0
 10
55.760764
 20
106.930557
 30
0.0
 10
55.650520
 20
107.313194
 30
0.0
 10
55.430034
 20
107.576860
 30
0.0
  0
SPLINE
  5
265
100
AcDbEntity
  8
Layer_1
 62
7
100
AcDbSpline
 70
8
 71
3
 72
8
 73
4
 74
0
 40
0
 40
0
 40
0
 40
0
 40
1
 40
1
 40
1
 40
1
 10
55.430034
 20
107.576860
 30
0.0
 10
55.209548
 20
107.840523
 30
0.0
 10
54.893518
 20
107.972355
 30
0.0
 10
54.481945
 20
107.972358
 30
0.0
  0
SPLINE
  5
266
100
AcDbEntity
  8
Layer_1
 62
7
100
AcDbSpline
 70
8
 71
3
 72
8
 73
4
 74
0
 40
0
 40
0
 40
0
 40
0
 40
1
 40
1
 40
1
 40
1
 10
54.481945
 20
107.972358
 30
0.0
 10
54.176939
 20
107.972355
 30
0.0
 10
53.923842
 20
107.893347
 30
0.0
 10
53.722646
 20
107.735333
 30
0.0
  0
SPLINE
  5
267
100
AcDbEntity
  8
Layer_1
 62
7
100
AcDbSpline
 70
8
 71
3
 72
8
 73
4
 74
0
 40
0
 40
0
 40
0
 40
0
 40
1
 40
1
 40
1
 40
1
 10
53.722646
 20
107.735333
 30
0.0
 10
53.521455
 20
107.577317
 30
0.0
 10
53.395133
 20
107.359588
 30
0.0
 10
53.343684
 20
107.082144
 30
0.0
  0
LINE
  5
268
100
AcDbEntity
  8
Layer_1
 62
7
100
AcDbLine
 10
53.343684
 20
107.082144
 30
0.0
 11
53.853558
 21
107.043559
 31
0.0
  0
SPLINE
  5
269
100
AcDbEntity
  8
Layer_1
 62
7
100
AcDbSpline
 70
8
 71
3
 72
8
 73
4
 74
0
 40
0
 40
0
 40
0
 40
0
 40
1
 40
1
 40
1
 40
1
 10
53.853558
 20
107.043559
 30
0.0
 10
53.879296
 20
107.208921
 30
0.0
 10
53.944512
 20
107.340295
 30
0.0
 10
54.049239
 20
107.437679
 30
0.0
  0
SPLINE
  5
26a
100
AcDbEntity
  8
Layer_1
 62
7
100
AcDbSpline
 70
8
 71
3
 72
8
 73
4
 74
0
 40
0
 40
0
 40
0
 40
0
 40
1
 40
1
 40
1
 40
1
 10
54.049239
 20
107.437679
 30
0.0
 10
54.153972
 20
107.535057
 30
0.0
 10
54.302802
 20
107.583749
 30
0.0
 10
54.495726
 20
107.583749
 30
0.0
  0
SPLINE
  5
26b
100
AcDbEntity
  8
Layer_1
 62
7
100
AcDbSpline
 70
8
 71
3
 72
8
 73
4
 74
0
 40
0
 40
0
 40
0
 40
0
 40
1
 40
1
 40
1
 40
1
 10
54.495726
 20
107.583749
 30
0.0
 10
54.758472
 20
107.583749
 30
0.0
 10
54.948642
 20
107.496472
 30
0.0
 10
55.066233
 20
107.321923
 30
0.0
  0
SPLINE
  5
26c
100
AcDbEntity
  8
Layer_1
 62
7
100
AcDbSpline
 70
8
 71
3
 72
8
 73
4
 74
0
 40
0
 40
0
 40
0
 40
0
 40
1
 40
1
 40
1
 40
1
 10
55.066233
 20
107.321923
 30
0.0
 10
55.183826
 20
107.147368
 30
0.0
 10
55.242621
 20
106.853389
 30
0.0
 10
55.242621
 20
106.439978
 30
0.0
  0
LINE
  5
26d
100
AcDbEntity
  8
Layer_1
 62
7
100
AcDbLine
 10
55.242621
 20
106.439978
 30
0.0
 11
55.242621
 21
106.439978
 31
0.0
  0
LINE
  5
26e
100
AcDbEntity
  8
Layer_1
 62
7
100
AcDbLine
 10
52.662933
 20
104.935161
 30
0.0
 11
52.662933
 21
105.538741
 31
0.0
  0
LINE
  5
26f
100
AcDbEntity
  8
Layer_1
 62
7
100
AcDbLine
 10
52.662933
 20
105.538741
 30
0.0
 11
52.125500
 21
105.538741
 31
0.0
  0
LINE
  5
270
100
AcDbEntity
  8
Layer_1
 62
7
100
AcDbLine
 10
52.125500
 20
105.538741
 30
0.0
 11
52.125500
 21
104.935161
 31
0.0
  0
LINE
  5
271
100
AcDbEntity
  8
Layer_1
 62
7
100
AcDbLine
 10
52.125500
 20
104.935161
 30
0.0
 11
52.662933
 21
104.935161
 31
0.0
  0
SPLINE
  5
272
100
AcDbEntity
  8
Layer_1
 62
7
100
AcDbSpline
 70
8
 71
3
 72
8
 73
4
 74
0
 40
0
 40
0
 40
0
 40
0
 40
1
 40
1
 40
1
 40
1
 10
48.710721
 20
106.428955
 30
0.0
 10
48.710724
 20
105.907137
 30
0.0
 10
48.825560
 20
105.518528
 30
0.0
 10
49.055229
 20
105.263134
 30
0.0
  0
SPLINE
  5
273
100
AcDbEntity
  8
Layer_1
 62
7
100
AcDbSpline
 70
8
 71
3
 72
8
 73
4
 74
0
 40
0
 40
0
 40
0
 40
0
 40
1
 40
1
 40
1
 40
1
 10
49.055229
 20
105.263134
 30
0.0
 10
49.284905
 20
105.007737
 30
0.0
 10
49.618390
 20
104.880040
 30
0.0
 10
50.055685
 20
104.880040
 30
0.0
  0
SPLINE
  5
274
100
AcDbEntity
  8
Layer_1
 62
7
100
AcDbSpline
 70
8
 71
3
 72
8
 73
4
 74
0
 40
0
 40
0
 40
0
 40
0
 40
1
 40
1
 40
1
 40
1
 10
50.055685
 20
104.880040
 30
0.0
 10
50.491148
 20
104.880040
 30
0.0
 10
50.820038
 20
105.012789
 30
0.0
 10
51.042362
 20
105.278292
 30
0.0
  0
SPLINE
  5
275
100
AcDbEntity
  8
Layer_1
 62
7
100
AcDbSpline
 70
8
 71
3
 72
8
 73
4
 74
0
 40
0
 40
0
 40
0
 40
0
 40
1
 40
1
 40
1
 40
1
 10
51.042362
 20
105.278292
 30
0.0
 10
51.264685
 20
105.543793
 30
0.0
 10
51.375847
 20
105.927347
 30
0.0
 10
51.375847
 20
106.428955
 30
0.0
  0
SPLINE
  5
276
100
AcDbEntity
  8
Layer_1
 62
7
100
AcDbSpline
 70
8
 71
3
 72
8
 73
4
 74
0
 40
0
 40
0
 40
0
 40
0
 40
1
 40
1
 40
1
 40
1
 10
51.375847
 20
106.428955
 30
0.0
 10
51.375847
 20
107.457886
 30
0.0
 10
50.930280
 20
107.972355
 30
0.0
 10
50.039149
 20
107.972358
 30
0.0
  0
SPLINE
  5
277
100
AcDbEntity
  8
Layer_1
 62
7
100
AcDbSpline
 70
8
 71
3
 72
8
 73
4
 74
0
 40
0
 40
0
 40
0
 40
0
 40
1
 40
1
 40
1
 40
1
 10
50.039149
 20
107.972358
 30
0.0
 10
49.583479
 20
107.972355
 30
0.0
 10
49.248157
 20
107.846952
 30
0.0
 10
49.033182
 20
107.596153
 30
0.0
  0
SPLINE
  5
278
100
AcDbEntity
  8
Layer_1
 62
7
100
AcDbSpline
 70
8
 71
3
 72
8
 73
4
 74
0
 40
0
 40
0
 40
0
 40
0
 40
1
 40
1
 40
1
 40
1
 10
49.033182
 20
107.596153
 30
0.0
 10
48.818211
 20
107.345347
 30
0.0
 10
48.710724
 20
106.956281
 30
0.0
 10
48.710721
 20
106.428955
 30
0.0
  0
LINE
  5
279
100
AcDbEntity
  8
Layer_1
 62
7
100
AcDbLine
 10
48.710721
 20
106.428955
 30
0.0
 11
48.710721
 21
106.428955
 31
0.0
  0
SPLINE
  5
27a
100
AcDbEntity
  8
Layer_1
 62
7
100
AcDbSpline
 70
8
 71
3
 72
8
 73
4
 74
0
 40
0
 40
0
 40
0
 40
0
 40
1
 40
1
 40
1
 40
1
 10
49.231618
 20
106.428955
 30
0.0
 10
49.231621
 20
106.840525
 30
0.0
 10
49.292714
 20
107.139559
 30
0.0
 10
49.414899
 20
107.326057
 30
0.0
  0
SPLINE
  5
27b
100
AcDbEntity
  8
Layer_1
 62
7
100
AcDbSpline
 70
8
 71
3
 72
8
 73
4
 74
0
 40
0
 40
0
 40
0
 40
0
 40
1
 40
1
 40
1
 40
1
 10
49.414899
 20
107.326057
 30
0.0
 10
49.537087
 20
107.512550
 30
0.0
 10
49.742412
 20
107.605796
 30
0.0
 10
50.030880
 20
107.605799
 30
0.0
  0
SPLINE
  5
27c
100
AcDbEntity
  8
Layer_1
 62
7
100
AcDbSpline
 70
8
 71
3
 72
8
 73
4
 74
0
 40
0
 40
0
 40
0
 40
0
 40
1
 40
1
 40
1
 40
1
 10
50.030880
 20
107.605799
 30
0.0
 10
50.321188
 20
107.605796
 30
0.0
 10
50.531111
 20
107.510713
 30
0.0
 10
50.660645
 20
107.320546
 30
0.0
  0
SPLINE
  5
27d
100
AcDbEntity
  8
Layer_1
 62
7
100
AcDbSpline
 70
8
 71
3
 72
8
 73
4
 74
0
 40
0
 40
0
 40
0
 40
0
 40
1
 40
1
 40
1
 40
1
 10
50.660645
 20
107.320546
 30
0.0
 10
50.790182
 20
107.130373
 30
0.0
 10
50.854949
 20
106.833176
 30
0.0
 10
50.854946
 20
106.428955
 30
0.0
  0
SPLINE
  5
27e
100
AcDbEntity
  8
Layer_1
 62
7
100
AcDbSpline
 70
8
 71
3
 72
8
 73
4
 74
0
 40
0
 40
0
 40
0
 40
0
 40
1
 40
1
 40
1
 40
1
 10
50.854946
 20
106.428955
 30
0.0
 10
50.854949
 20
106.035754
 30
0.0
 10
50.791099
 20
105.740395
 30
0.0
 10
50.663399
 20
105.542876
 30
0.0
  0
SPLINE
  5
27f
100
AcDbEntity
  8
Layer_1
 62
7
100
AcDbSpline
 70
8
 71
3
 72
8
 73
4
 74
0
 40
0
 40
0
 40
0
 40
0
 40
1
 40
1
 40
1
 40
1
 10
50.663399
 20
105.542876
 30
0.0
 10
50.535702
 20
105.345357
 30
0.0
 10
50.334969
 20
105.246596
 30
0.0
 10
50.061196
 20
105.246596
 30
0.0
  0
SPLINE
  5
280
100
AcDbEntity
  8
Layer_1
 62
7
100
AcDbSpline
 70
8
 71
3
 72
8
 73
4
 74
0
 40
0
 40
0
 40
0
 40
0
 40
1
 40
1
 40
1
 40
1
 10
50.061196
 20
105.246596
 30
0.0
 10
49.763542
 20
105.246596
 30
0.0
 10
49.550865
 20
105.342142
 30
0.0
 10
49.423165
 20
105.533229
 30
0.0
  0
SPLINE
  5
281
100
AcDbEntity
  8
Layer_1
 62
7
100
AcDbSpline
 70
8
 71
3
 72
8
 73
4
 74
0
 40
0
 40
0
 40
0
 40
0
 40
1
 40
1
 40
1
 40
1
 10
49.423165
 20
105.533229
 30
0.0
 10
49.295471
 20
105.724316
 30
0.0
 10
49.231621
 20
106.022891
 30
0.0
 10
49.231618
 20
106.428955
 30
0.0
  0
LINE
  5
282
100
AcDbEntity
  8
Layer_1
 62
7
100
AcDbLine
 10
49.231618
 20
106.428955
 30
0.0
 11
49.231618
 21
106.428955
 31
0.0
  0
LINE
  5
283
100
AcDbEntity
  8
Layer_1
 62
7
100
AcDbLine
 10
48.079579
 20
104.935161
 30
0.0
 11
48.079579
 21
107.222705
 31
0.0
  0
SPLINE
  5
284
100
AcDbEntity
  8
Layer_1
 62
7
100
AcDbSpline
 70
8
 71
3
 72
8
 73
4
 74
0
 40
0
 40
0
 40
0
 40
0
 40
1
 40
1
 40
1
 40
1
 10
48.079579
 20
107.222705
 30
0.0
 10
48.079579
 20
107.432164
 30
0.0
 10
48.085082
 20
107.663674
 30
0.0
 10
48.096117
 20
107.917237
 30
0.0
  0
LINE
  5
285
100
AcDbEntity
  8
Layer_1
 62
7
100
AcDbLine
 10
48.096117
 20
107.917237
 30
0.0
 11
47.627586
 21
107.917237
 31
0.0
  0
SPLINE
  5
286
100
AcDbEntity
  8
Layer_1
 62
7
100
AcDbSpline
 70
8
 71
3
 72
8
 73
4
 74
0
 40
0
 40
0
 40
0
 40
0
 40
1
 40
1
 40
1
 40
1
 10
47.627586
 20
107.917237
 30
0.0
 10
47.612882
 20
107.579154
 30
0.0
 10
47.605544
 20
107.376124
 30
0.0
 10
47.605544
 20
107.308142
 30
0.0
  0
LINE
  5
287
100
AcDbEntity
  8
Layer_1
 62
7
100
AcDbLine
 10
47.605544
 20
107.308142
 30
0.0
 11
47.594509
 21
107.308142
 31
0.0
  0
SPLINE
  5
288
100
AcDbEntity
  8
Layer_1
 62
7
100
AcDbSpline
 70
8
 71
3
 72
8
 73
4
 74
0
 40
0
 40
0
 40
0
 40
0
 40
1
 40
1
 40
1
 40
1
 10
47.594509
 20
107.308142
 30
0.0
 10
47.515504
 20
107.563536
 30
0.0
 10
47.424552
 20
107.738088
 30
0.0
 10
47.321657
 20
107.831797
 30
0.0
  0
SPLINE
  5
289
100
AcDbEntity
  8
Layer_1
 62
7
100
AcDbSpline
 70
8
 71
3
 72
8
 73
4
 74
0
 40
0
 40
0
 40
0
 40
0
 40
1
 40
1
 40
1
 40
1
 10
47.321657
 20
107.831797
 30
0.0
 10
47.218764
 20
107.925500
 30
0.0
 10
47.073612
 20
107.972355
 30
0.0
 10
46.886196
 20
107.972358
 30
0.0
  0
SPLINE
  5
28a
100
AcDbEntity
  8
Layer_1
 62
7
100
AcDbSpline
 70
8
 71
3
 72
8
 73
4
 74
0
 40
0
 40
0
 40
0
 40
0
 40
1
 40
1
 40
1
 40
1
 10
46.886196
 20
107.972358
 30
0.0
 10
46.820055
 20
107.972355
 30
0.0
 10
46.752990
 20
107.963157
 30
0.0
 10
46.685003
 20
107.944784
 30
0.0
  0
LINE
  5
28b
100
AcDbEntity
  8
Layer_1
 62
7
100
AcDbLine
 10
46.685003
 20
107.944784
 30
0.0
 11
46.685003
 21
107.490031
 31
0.0
  0
SPLINE
  5
28c
100
AcDbEntity
  8
Layer_1
 62
7
100
AcDbSpline
 70
8
 71
3
 72
8
 73
4
 74
0
 40
0
 40
0
 40
0
 40
0
 40
1
 40
1
 40
1
 40
1
 10
46.685003
 20
107.490031
 30
0.0
 10
46.751150
 20
107.508404
 30
0.0
 10
46.839345
 20
107.517604
 30
0.0
 10
46.949586
 20
107.517604
 30
0.0
  0
SPLINE
  5
28d
100
AcDbEntity
  8
Layer_1
 62
7
100
AcDbSpline
 70
8
 71
3
 72
8
 73
4
 74
0
 40
0
 40
0
 40
0
 40
0
 40
1
 40
1
 40
1
 40
1
 10
46.949586
 20
107.517604
 30
0.0
 10
47.155377
 20
107.517602
 30
0.0
 10
47.312473
 20
107.428947
 30
0.0
 10
47.420878
 20
107.251644
 30
0.0
  0
SPLINE
  5
28e
100
AcDbEntity
  8
Layer_1
 62
7
100
AcDbSpline
 70
8
 71
3
 72
8
 73
4
 74
0
 40
0
 40
0
 40
0
 40
0
 40
1
 40
1
 40
1
 40
1
 10
47.420878
 20
107.251644
 30
0.0
 10
47.529282
 20
107.074332
 30
0.0
 10
47.583486
 20
106.820315
 30
0.0
 10
47.583486
 20
106.489587
 30
0.0
  0
LINE
  5
28f
100
AcDbEntity
  8
Layer_1
 62
7
100
AcDbLine
 10
47.583486
 20
106.489587
 30
0.0
 11
47.583486
 21
104.935161
 31
0.0
  0
LINE
  5
290
100
AcDbEntity
  8
Layer_1
 62
7
100
AcDbLine
 10
47.583486
 20
104.935161
 30
0.0
 11
48.079579
 21
104.935161
 31
0.0
  0
SPLINE
  5
291
100
AcDbEntity
  8
Layer_1
 62
7
100
AcDbSpline
 70
8
 71
3
 72
8
 73
4
 74
0
 40
0
 40
0
 40
0
 40
0
 40
1
 40
1
 40
1
 40
1
 10
45.075456
 20
103.763829
 30
0.0
 10
45.400675
 20
103.763829
 30
0.0
 10
45.659743
 20
103.827679
 30
0.0
 10
45.852670
 20
103.955376
 30
0.0
  0
SPLINE
  5
292
100
AcDbEntity
  8
Layer_1
 62
7
100
AcDbSpline
 70
8
 71
3
 72
8
 73
4
 74
0
 40
0
 40
0
 40
0
 40
0
 40
1
 40
1
 40
1
 40
1
 10
45.852670
 20
103.955376
 30
0.0
 10
46.045595
 20
104.083076
 30
0.0
 10
46.169617
 20
104.264516
 30
0.0
 10
46.224738
 20
104.499701
 30
0.0
  0
LINE
  5
293
100
AcDbEntity
  8
Layer_1
 62
7
100
AcDbLine
 10
46.224738
 20
104.499701
 30
0.0
 11
45.725891
 21
104.571360
 31
0.0
  0
SPLINE
  5
294
100
AcDbEntity
  8
Layer_1
 62
7
100
AcDbSpline
 70
8
 71
3
 72
8
 73
4
 74
0
 40
0
 40
0
 40
0
 40
0
 40
1
 40
1
 40
1
 40
1
 10
45.725891
 20
104.571360
 30
0.0
 10
45.692817
 20
104.433556
 30
0.0
 10
45.619781
 20
104.327446
 30
0.0
 10
45.506782
 20
104.253033
 30
0.0
  0
SPLINE
  5
295
100
AcDbEntity
  8
Layer_1
 62
7
100
AcDbSpline
 70
8
 71
3
 72
8
 73
4
 74
0
 40
0
 40
0
 40
0
 40
0
 40
1
 40
1
 40
1
 40
1
 10
45.506782
 20
104.253033
 30
0.0
 10
45.393783
 20
104.178619
 30
0.0
 10
45.245416
 20
104.141411
 30
0.0
 10
45.061675
 20
104.141411
 30
0.0
  0
SPLINE
  5
296
100
AcDbEntity
  8
Layer_1
 62
7
100
AcDbSpline
 70
8
 71
3
 72
8
 73
4
 74
0
 40
0
 40
0
 40
0
 40
0
 40
1
 40
1
 40
1
 40
1
 10
45.061675
 20
104.141411
 30
0.0
 10
44.567422
 20
104.141411
 30
0.0
 10
44.320294
 20
104.430799
 30
0.0
 10
44.320291
 20
105.009575
 30
0.0
  0
LINE
  5
297
100
AcDbEntity
  8
Layer_1
 62
7
100
AcDbLine
 10
44.320291
 20
105.009575
 30
0.0
 11
44.320291
 21
105.489132
 31
0.0
  0
LINE
  5
298
100
AcDbEntity
  8
Layer_1
 62
7
100
AcDbLine
 10
44.320291
 20
105.489132
 30
0.0
 11
44.325795
 21
105.489132
 31
0.0
  0
SPLINE
  5
299
100
AcDbEntity
  8
Layer_1
 62
7
100
AcDbSpline
 70
8
 71
3
 72
8
 73
4
 74
0
 40
0
 40
0
 40
0
 40
0
 40
1
 40
1
 40
1
 40
1
 10
44.325795
 20
105.489132
 30
0.0
 10
44.419504
 20
105.298045
 30
0.0
 10
44.548121
 20
105.154270
 30
0.0
 10
44.711646
 20
105.057806
 30
0.0
  0
SPLINE
  5
29a
100
AcDbEntity
  8
Layer_1
 62
7
100
AcDbSpline
 70
8
 71
3
 72
8
 73
4
 74
0
 40
0
 40
0
 40
0
 40
0
 40
1
 40
1
 40
1
 40
1
 10
44.711646
 20
105.057806
 30
0.0
 10
44.875174
 20
104.961343
 30
0.0
 10
45.066261
 20
104.913111
 30
0.0
 10
45.284910
 20
104.913111
 30
0.0
  0
SPLINE
  5
29b
100
AcDbEntity
  8
Layer_1
 62
7
100
AcDbSpline
 70
8
 71
3
 72
8
 73
4
 74
0
 40
0
 40
0
 40
0
 40
0
 40
1
 40
1
 40
1
 40
1
 10
45.284910
 20
104.913111
 30
0.0
 10
45.650548
 20
104.913111
 30
0.0
 10
45.919266
 20
105.034379
 30
0.0
 10
46.091061
 20
105.276915
 30
0.0
  0
SPLINE
  5
29c
100
AcDbEntity
  8
Layer_1
 62
7
100
AcDbSpline
 70
8
 71
3
 72
8
 73
4
 74
0
 40
0
 40
0
 40
0
 40
0
 40
1
 40
1
 40
1
 40
1
 10
46.091061
 20
105.276915
 30
0.0
 10
46.262858
 20
105.519449
 30
0.0
 10
46.348755
 20
105.900705
 30
0.0
 10
46.348755
 20
106.420686
 30
0.0
  0
SPLINE
  5
29d
100
AcDbEntity
  8
Layer_1
 62
7
100
AcDbSpline
 70
8
 71
3
 72
8
 73
4
 74
0
 40
0
 40
0
 40
0
 40
0
 40
1
 40
1
 40
1
 40
1
 10
46.348755
 20
106.420686
 30
0.0
 10
46.348755
 20
106.948012
 30
0.0
 10
46.256426
 20
107.337078
 30
0.0
 10
46.071768
 20
107.587883
 30
0.0
  0
SPLINE
  5
29e
100
AcDbEntity
  8
Layer_1
 62
7
100
AcDbSpline
 70
8
 71
3
 72
8
 73
4
 74
0
 40
0
 40
0
 40
0
 40
0
 40
1
 40
1
 40
1
 40
1
 10
46.071768
 20
107.587883
 30
0.0
 10
45.887113
 20
107.838683
 30
0.0
 10
45.606451
 20
107.964086
 30
0.0
 10
45.229786
 20
107.964088
 30
0.0
  0
SPLINE
  5
29f
100
AcDbEntity
  8
Layer_1
 62
7
100
AcDbSpline
 70
8
 71
3
 72
8
 73
4
 74
0
 40
0
 40
0
 40
0
 40
0
 40
1
 40
1
 40
1
 40
1
 10
45.229786
 20
107.964088
 30
0.0
 10
45.018489
 20
107.964086
 30
0.0
 10
44.835211
 20
107.915854
 30
0.0
 10
44.679950
 20
107.819396
 30
0.0
  0
SPLINE
  5
2a0
100
AcDbEntity
  8
Layer_1
 62
7
100
AcDbSpline
 70
8
 71
3
 72
8
 73
4
 74
0
 40
0
 40
0
 40
0
 40
0
 40
1
 40
1
 40
1
 40
1
 10
44.679950
 20
107.819396
 30
0.0
 10
44.524693
 20
107.722930
 30
0.0
 10
44.404803
 20
107.585586
 30
0.0
 10
44.320283
 20
107.407360
 30
0.0
  0
LINE
  5
2a1
100
AcDbEntity
  8
Layer_1
 62
7
100
AcDbLine
 10
44.320283
 20
107.407360
 30
0.0
 11
44.314779
 21
107.407360
 31
0.0
  0
SPLINE
  5
2a2
100
AcDbEntity
  8
Layer_1
 62
7
100
AcDbSpline
 70
8
 71
3
 72
8
 73
4
 74
0
 40
0
 40
0
 40
0
 40
0
 40
1
 40
1
 40
1
 40
1
 10
44.314779
 20
107.407360
 30
0.0
 10
44.314779
 20
107.462481
 30
0.0
 10
44.311111
 20
107.558024
 30
0.0
 10
44.303745
 20
107.693993
 30
0.0
  0
SPLINE
  5
2a3
100
AcDbEntity
  8
Layer_1
 62
7
100
AcDbSpline
 70
8
 71
3
 72
8
 73
4
 74
0
 40
0
 40
0
 40
0
 40
0
 40
1
 40
1
 40
1
 40
1
 10
44.303745
 20
107.693993
 30
0.0
 10
44.296407
 20
107.829957
 30
0.0
 10
44.289041
 20
107.904370
 30
0.0
 10
44.281703
 20
107.917237
 30
0.0
  0
LINE
  5
2a4
100
AcDbEntity
  8
Layer_1
 62
7
100
AcDbLine
 10
44.281703
 20
107.917237
 30
0.0
 11
43.810414
 21
107.917237
 31
0.0
  0
SPLINE
  5
2a5
100
AcDbEntity
  8
Layer_1
 62
7
100
AcDbSpline
 70
8
 71
3
 72
8
 73
4
 74
0
 40
0
 40
0
 40
0
 40
0
 40
1
 40
1
 40
1
 40
1
 10
43.810414
 20
107.917237
 30
0.0
 10
43.821449
 20
107.818013
 30
0.0
 10
43.826953
 20
107.612228
 30
0.0
 10
43.826953
 20
107.299876
 30
0.0
  0
LINE
  5
2a6
100
AcDbEntity
  8
Layer_1
 62
7
100
AcDbLine
 10
43.826953
 20
107.299876
 30
0.0
 11
43.826953
 21
105.020598
 31
0.0
  0
SPLINE
  5
2a7
100
AcDbEntity
  8
Layer_1
 62
7
100
AcDbSpline
 70
8
 71
3
 72
8
 73
4
 74
0
 40
0
 40
0
 40
0
 40
0
 40
1
 40
1
 40
1
 40
1
 10
43.826953
 20
105.020598
 30
0.0
 10
43.826955
 20
104.182754
 30
0.0
 10
44.243123
 20
103.763829
 30
0.0
 10
45.075456
 20
103.763829
 30
0.0
  0
LINE
  5
2a8
100
AcDbEntity
  8
Layer_1
 62
7
100
AcDbLine
 10
45.075456
 20
103.763829
 30
0.0
 11
45.075456
 21
103.763829
 31
0.0
  0
SPLINE
  5
2a9
100
AcDbEntity
  8
Layer_1
 62
7
100
AcDbSpline
 70
8
 71
3
 72
8
 73
4
 74
0
 40
0
 40
0
 40
0
 40
0
 40
1
 40
1
 40
1
 40
1
 10
44.320291
 20
106.426197
 30
0.0
 10
44.320294
 20
106.668731
 30
0.0
 10
44.353365
 20
106.877733
 30
0.0
 10
44.419509
 20
107.053205
 30
0.0
  0
SPLINE
  5
2aa
100
AcDbEntity
  8
Layer_1
 62
7
100
AcDbSpline
 70
8
 71
3
 72
8
 73
4
 74
0
 40
0
 40
0
 40
0
 40
0
 40
1
 40
1
 40
1
 40
1
 10
44.419509
 20
107.053205
 30
0.0
 10
44.485657
 20
107.228674
 30
0.0
 10
44.578906
 20
107.362803
 30
0.0
 10
44.699251
 20
107.455592
 30
0.0
  0
SPLINE
  5
2ab
100
AcDbEntity
  8
Layer_1
 62
7
100
AcDbSpline
 70
8
 71
3
 72
8
 73
4
 74
0
 40
0
 40
0
 40
0
 40
0
 40
1
 40
1
 40
1
 40
1
 10
44.699251
 20
107.455592
 30
0.0
 10
44.819602
 20
107.548378
 30
0.0
 10
44.956028
 20
107.594772
 30
0.0
 10
45.108529
 20
107.594775
 30
0.0
  0
SPLINE
  5
2ac
100
AcDbEntity
  8
Layer_1
 62
7
100
AcDbSpline
 70
8
 71
3
 72
8
 73
4
 74
0
 40
0
 40
0
 40
0
 40
0
 40
1
 40
1
 40
1
 40
1
 10
45.108529
 20
107.594775
 30
0.0
 10
45.362089
 20
107.594772
 30
0.0
 10
45.546744
 20
107.502903
 30
0.0
 10
45.662501
 20
107.319166
 30
0.0
  0
SPLINE
  5
2ad
100
AcDbEntity
  8
Layer_1
 62
7
100
AcDbSpline
 70
8
 71
3
 72
8
 73
4
 74
0
 40
0
 40
0
 40
0
 40
0
 40
1
 40
1
 40
1
 40
1
 10
45.662501
 20
107.319166
 30
0.0
 10
45.778257
 20
107.135428
 30
0.0
 10
45.836132
 20
106.837771
 30
0.0
 10
45.836132
 20
106.426197
 30
0.0
  0
SPLINE
  5
2ae
100
AcDbEntity
  8
Layer_1
 62
7
100
AcDbSpline
 70
8
 71
3
 72
8
 73
4
 74
0
 40
0
 40
0
 40
0
 40
0
 40
1
 40
1
 40
1
 40
1
 10
45.836132
 20
106.426197
 30
0.0
 10
45.836132
 20
106.018299
 30
0.0
 10
45.781931
 20
105.725236
 30
0.0
 10
45.673524
 20
105.547010
 30
0.0
  0
SPLINE
  5
2af
100
AcDbEntity
  8
Layer_1
 62
7
100
AcDbSpline
 70
8
 71
3
 72
8
 73
4
 74
0
 40
0
 40
0
 40
0
 40
0
 40
1
 40
1
 40
1
 40
1
 10
45.673524
 20
105.547010
 30
0.0
 10
45.565120
 20
105.368784
 30
0.0
 10
45.379545
 20
105.279670
 30
0.0
 10
45.116796
 20
105.279670
 30
0.0
  0
SPLINE
  5
2b0
100
AcDbEntity
  8
Layer_1
 62
7
100
AcDbSpline
 70
8
 71
3
 72
8
 73
4
 74
0
 40
0
 40
0
 40
0
 40
0
 40
1
 40
1
 40
1
 40
1
 10
45.116796
 20
105.279670
 30
0.0
 10
44.960620
 20
105.279670
 30
0.0
 10
44.821899
 20
105.325604
 30
0.0
 10
44.700628
 20
105.417473
 30
0.0
  0
SPLINE
  5
2b1
100
AcDbEntity
  8
Layer_1
 62
7
100
AcDbSpline
 70
8
 71
3
 72
8
 73
4
 74
0
 40
0
 40
0
 40
0
 40
0
 40
1
 40
1
 40
1
 40
1
 10
44.700628
 20
105.417473
 30
0.0
 10
44.579363
 20
105.509342
 30
0.0
 10
44.485657
 20
105.641174
 30
0.0
 10
44.419509
 20
105.812971
 30
0.0
  0
SPLINE
  5
2b2
100
AcDbEntity
  8
Layer_1
 62
7
100
AcDbSpline
 70
8
 71
3
 72
8
 73
4
 74
0
 40
0
 40
0
 40
0
 40
0
 40
1
 40
1
 40
1
 40
1
 10
44.419509
 20
105.812971
 30
0.0
 10
44.353365
 20
105.984765
 30
0.0
 10
44.320294
 20
106.189173
 30
0.0
 10
44.320291
 20
106.426197
 30
0.0
  0
LINE
  5
2b3
100
AcDbEntity
  8
Layer_1
 62
7
100
AcDbLine
 10
44.320291
 20
106.426197
 30
0.0
 11
44.320291
 21
106.426197
 31
0.0
  0
LINE
  5
2b4
100
AcDbEntity
  8
Layer_1
 62
6
100
AcDbLine
 10
20.405407
 20
203.360034
 30
0.0
 11
96.577021
 21
203.360034
 31
0.0
  0
SPLINE
  5
2b5
100
AcDbEntity
  8
Layer_1
 62
6
100
AcDbSpline
 70
8
 71
3
 72
8
 73
4
 74
0
 40
0
 40
0
 40
0
 40
0
 40
1
 40
1
 40
1
 40
1
 10
96.577021
 20
203.360034
 30
0.0
 10
99.299486
 20
203.360034
 30
0.0
 10
101.491218
 20
201.168302
 30
0.0
 10
101.491218
 20
198.445837
 30
0.0
  0
LINE
  5
2b6
100
AcDbEntity
  8
Layer_1
 62
6
100
AcDbLine
 10
101.491218
 20
198.445837
 30
0.0
 11
101.491218
 21
91.274231
 31
0.0
  0
SPLINE
  5
2b7
100
AcDbEntity
  8
Layer_1
 62
6
100
AcDbSpline
 70
8
 71
3
 72
8
 73
4
 74
0
 40
0
 40
0
 40
0
 40
0
 40
1
 40
1
 40
1
 40
1
 10
101.491218
 20
91.274231
 30
0.0
 10
101.491218
 20
88.551766
 30
0.0
 10
99.299486
 20
86.360034
 30
0.0
 10
96.577021
 20
86.360034
 30
0.0
  0
LINE
  5
2b8
100
AcDbEntity
  8
Layer_1
 62
6
100
AcDbLine
 10
96.577021
 20
86.360034
 30
0.0
 11
20.405407
 21
86.360034
 31
0.0
  0
SPLINE
  5
2b9
100
AcDbEntity
  8
Layer_1
 62
6
100
AcDbSpline
 70
8
 71
3
 72
8
 73
4
 74
0
 40
0
 40
0
 40
0
 40
0
 40
1
 40
1
 40
1
 40
1
 10
20.405407
 20
86.360034
 30
0.0
 10
17.682944
 20
86.360034
 30
0.0
 10
15.491212
 20
88.551766
 30
0.0
 10
15.491212
 20
91.274231
 30
0.0
  0
LINE
  5
2ba
100
AcDbEntity
  8
Layer_1
 62
6
100
AcDbLine
 10
15.491212
 20
91.274231
 30
0.0
 11
15.491212
 21
198.445837
 31
0.0
  0
SPLINE
  5
2bb
100
AcDbEntity
  8
Layer_1
 62
6
100
AcDbSpline
 70
8
 71
3
 72
8
 73
4
 74
0
 40
0
 40
0
 40
0
 40
0
 40
1
 40
1
 40
1
 40
1
 10
15.491212
 20
198.445837
 30
0.0
 10
15.491212
 20
201.168302
 30
0.0
 10
17.682944
 20
203.360034
 30
0.0
 10
20.405407
 20
203.360034
 30
0.0
  0
LINE
  5
2bc
100
AcDbEntity
  8
Layer_1
 62
6
100
AcDbLine
 10
20.405407
 20
203.360034
 30
0.0
 11
20.405407
 21
203.360034
 31
0.0
  0
LINE
  5
2bd
100
AcDbEntity
  8
Layer_1
 62
6
100
AcDbLine
 10
110.403689
 20
203.477247
 30
0.0
 11
186.575303
 21
203.477247
 31
0.0
  0
SPLINE
  5
2be
100
AcDbEntity
  8
Layer_1
 62
6
100
AcDbSpline
 70
8
 71
3
 72
8
 73
4
 74
0
 40
0
 40
0
 40
0
 40
0
 40
1
 40
1
 40
1
 40
1
 10
186.575303
 20
203.477247
 30
0.0
 10
189.297765
 20
203.477247
 30
0.0
 10
191.489497
 20
201.285514
 30
0.0
 10
191.489497
 20
198.563052
 30
0.0
  0
LINE
  5
2bf
100
AcDbEntity
  8
Layer_1
 62
6
100
AcDbLine
 10
191.489497
 20
198.563052
 30
0.0
 11
191.489497
 21
91.391444
 31
0.0
  0
SPLINE
  5
2c0
100
AcDbEntity
  8
Layer_1
 62
6
100
AcDbSpline
 70
8
 71
3
 72
8
 73
4
 74
0
 40
0
 40
0
 40
0
 40
0
 40
1
 40
1
 40
1
 40
1
 10
191.489497
 20
91.391444
 30
0.0
 10
191.489497
 20
88.668978
 30
0.0
 10
189.297765
 20
86.477246
 30
0.0
 10
186.575303
 20
86.477246
 30
0.0
  0
LINE
  5
2c1
100
AcDbEntity
  8
Layer_1
 62
6
100
AcDbLine
 10
186.575303
 20
86.477246
 30
0.0
 11
110.403689
 21
86.477246
 31
0.0
  0
SPLINE
  5
2c2
100
AcDbEntity
  8
Layer_1
 62
6
100
AcDbSpline
 70
8
 71
3
 72
8
 73
4
 74
0
 40
0
 40
0
 40
0
 40
0
 40
1
 40
1
 40
1
 40
1
 10
110.403689
 20
86.477246
 30
0.0
 10
107.681223
 20
86.477246
 30
0.0
 10
105.489491
 20
88.668978
 30
0.0
 10
105.489491
 20
91.391444
 30
0.0
  0
LINE
  5
2c3
100
AcDbEntity
  8
Layer_1
 62
6
100
AcDbLine
 10
105.489491
 20
91.391444
 30
0.0
 11
105.489491
 21
198.563052
 31
0.0
  0
SPLINE
  5
2c4
100
AcDbEntity
  8
Layer_1
 62
6
100
AcDbSpline
 70
8
 71
3
 72
8
 73
4
 74
0
 40
0
 40
0
 40
0
 40
0
 40
1
 40
1
 40
1
 40
1
 10
105.489491
 20
198.563052
 30
0.0
 10
105.489491
 20
201.285514
 30
0.0
 10
107.681223
 20
203.477247
 30
0.0
 10
110.403689
 20
203.477247
 30
0.0
  0
LINE
  5
2c5
100
AcDbEntity
  8
Layer_1
 62
6
100
AcDbLine
 10
110.403689
 20
203.477247
 30
0.0
 11
110.403689
 21
203.477247
 31
0.0
  0
SPLINE
  5
2c6
100
AcDbEntity
  8
Layer_1
 62
5
100
AcDbSpline
 70
8
 71
3
 72
8
 73
4
 74
0
 40
0
 40
0
 40
0
 40
0
 40
1
 40
1
 40
1
 40
1
 10
30.205720
 20
196.743390
 30
0.0
 10
30.205720
 20
195.914964
 30
0.0
 10
29.534144
 20
195.243391
 30
0.0
 10
28.705709
 20
195.243391
 30
0.0
  0
SPLINE
  5
2c7
100
AcDbEntity
  8
Layer_1
 62
5
100
AcDbSpline
 70
8
 71
3
 72
8
 73
4
 74
0
 40
0
 40
0
 40
0
 40
0
 40
1
 40
1
 40
1
 40
1
 10
28.705709
 20
195.243391
 30
0.0
 10
27.877302
 20
195.243391
 30
0.0
 10
27.205726
 20
195.914964
 30
0.0
 10
27.205726
 20
196.743390
 30
0.0
  0
SPLINE
  5
2c8
100
AcDbEntity
  8
Layer_1
 62
5
100
AcDbSpline
 70
8
 71
3
 72
8
 73
4
 74
0
 40
0
 40
0
 40
0
 40
0
 40
1
 40
1
 40
1
 40
1
 10
27.205726
 20
196.743390
 30
0.0
 10
27.205726
 20
197.571820
 30
0.0
 10
27.877302
 20
198.243387
 30
0.0
 10
28.705709
 20
198.243387
 30
0.0
  0
SPLINE
  5
2c9
100
AcDbEntity
  8
Layer_1
 62
5
100
AcDbSpline
 70
8
 71
3
 72
8
 73
4
 74
0
 40
0
 40
0
 40
0
 40
0
 40
1
 40
1
 40
1
 40
1
 10
28.705709
 20
198.243387
 30
0.0
 10
29.534144
 20
198.243387
 30
0.0
 10
30.205720
 20
197.571820
 30
0.0
 10
30.205720
 20
196.743390
 30
0.0
  0
LINE
  5
2ca
100
AcDbEntity
  8
Layer_1
 62
5
100
AcDbLine
 10
30.205720
 20
196.743390
 30
0.0
 11
30.205720
 21
196.743390
 31
0.0
  0
SPLINE
  5
2cb
100
AcDbEntity
  8
Layer_1
 62
5
100
AcDbSpline
 70
8
 71
3
 72
8
 73
4
 74
0
 40
0
 40
0
 40
0
 40
0
 40
1
 40
1
 40
1
 40
1
 10
89.781928
 20
196.743388
 30
0.0
 10
89.781928
 20
195.914961
 30
0.0
 10
89.110352
 20
195.243391
 30
0.0
 10
88.281945
 20
195.243391
 30
0.0
  0
SPLINE
  5
2cc
100
AcDbEntity
  8
Layer_1
 62
5
100
AcDbSpline
 70
8
 71
3
 72
8
 73
4
 74
0
 40
0
 40
0
 40
0
 40
0
 40
1
 40
1
 40
1
 40
1
 10
88.281945
 20
195.243391
 30
0.0
 10
87.453510
 20
195.243391
 30
0.0
 10
86.781934
 20
195.914961
 30
0.0
 10
86.781934
 20
196.743388
 30
0.0
  0
SPLINE
  5
2cd
100
AcDbEntity
  8
Layer_1
 62
5
100
AcDbSpline
 70
8
 71
3
 72
8
 73
4
 74
0
 40
0
 40
0
 40
0
 40
0
 40
1
 40
1
 40
1
 40
1
 10
86.781934
 20
196.743388
 30
0.0
 10
86.781934
 20
197.571817
 30
0.0
 10
87.453510
 20
198.243385
 30
0.0
 10
88.281945
 20
198.243385
 30
0.0
  0
SPLINE
  5
2ce
100
AcDbEntity
  8
Layer_1
 62
5
100
AcDbSpline
 70
8
 71
3
 72
8
 73
4
 74
0
 40
0
 40
0
 40
0
 40
0
 40
1
 40
1
 40
1
 40
1
 10
88.281945
 20
198.243385
 30
0.0
 10
89.110352
 20
198.243385
 30
0.0
 10
89.781928
 20
197.571817
 30
0.0
 10
89.781928
 20
196.743388
 30
0.0
  0
LINE
  5
2cf
100
AcDbEntity
  8
Layer_1
 62
5
100
AcDbLine
 10
89.781928
 20
196.743388
 30
0.0
 11
89.781928
 21
196.743388
 31
0.0
  0
SPLINE
  5
2d0
100
AcDbEntity
  8
Layer_1
 62
5
100
AcDbSpline
 70
8
 71
3
 72
8
 73
4
 74
0
 40
0
 40
0
 40
0
 40
0
 40
1
 40
1
 40
1
 40
1
 10
89.705728
 20
93.243389
 30
0.0
 10
89.705728
 20
92.414965
 30
0.0
 10
89.034152
 20
91.743392
 30
0.0
 10
88.205717
 20
91.743392
 30
0.0
  0
SPLINE
  5
2d1
100
AcDbEntity
  8
Layer_1
 62
5
100
AcDbSpline
 70
8
 71
3
 72
8
 73
4
 74
0
 40
0
 40
0
 40
0
 40
0
 40
1
 40
1
 40
1
 40
1
 10
88.205717
 20
91.743392
 30
0.0
 10
87.377310
 20
91.743392
 30
0.0
 10
86.705734
 20
92.414962
 30
0.0
 10
86.705734
 20
93.243389
 30
0.0
  0
SPLINE
  5
2d2
100
AcDbEntity
  8
Layer_1
 62
5
100
AcDbSpline
 70
8
 71
3
 72
8
 73
4
 74
0
 40
0
 40
0
 40
0
 40
0
 40
1
 40
1
 40
1
 40
1
 10
86.705706
 20
93.243389
 30
0.0
 10
86.705706
 20
94.071818
 30
0.0
 10
87.377282
 20
94.743386
 30
0.0
 10
88.205717
 20
94.743386
 30
0.0
  0
SPLINE
  5
2d3
100
AcDbEntity
  8
Layer_1
 62
5
100
AcDbSpline
 70
8
 71
3
 72
8
 73
4
 74
0
 40
0
 40
0
 40
0
 40
0
 40
1
 40
1
 40
1
 40
1
 10
88.205717
 20
94.743386
 30
0.0
 10
89.034152
 20
94.743386
 30
0.0
 10
89.705728
 20
94.071818
 30
0.0
 10
89.705728
 20
93.243389
 30
0.0
  0
LINE
  5
2d4
100
AcDbEntity
  8
Layer_1
 62
5
100
AcDbLine
 10
89.705728
 20
93.243389
 30
0.0
 11
89.705728
 21
93.243389
 31
0.0
  0
SPLINE
  5
2d5
100
AcDbEntity
  8
Layer_1
 62
5
100
AcDbSpline
 70
8
 71
3
 72
8
 73
4
 74
0
 40
0
 40
0
 40
0
 40
0
 40
1
 40
1
 40
1
 40
1
 10
30.205720
 20
93.243391
 30
0.0
 10
30.205720
 20
92.414965
 30
0.0
 10
29.534172
 20
91.743392
 30
0.0
 10
28.705737
 20
91.743392
 30
0.0
  0
SPLINE
  5
2d6
100
AcDbEntity
  8
Layer_1
 62
5
100
AcDbSpline
 70
8
 71
3
 72
8
 73
4
 74
0
 40
0
 40
0
 40
0
 40
0
 40
1
 40
1
 40
1
 40
1
 10
28.705737
 20
91.743392
 30
0.0
 10
27.877302
 20
91.743392
 30
0.0
 10
27.205726
 20
92.414965
 30
0.0
 10
27.205726
 20
93.243391
 30
0.0
  0
SPLINE
  5
2d7
100
AcDbEntity
  8
Layer_1
 62
5
100
AcDbSpline
 70
8
 71
3
 72
8
 73
4
 74
0
 40
0
 40
0
 40
0
 40
0
 40
1
 40
1
 40
1
 40
1
 10
27.205726
 20
93.243391
 30
0.0
 10
27.205726
 20
94.071821
 30
0.0
 10
27.877302
 20
94.743391
 30
0.0
 10
28.705737
 20
94.743391
 30
0.0
  0
SPLINE
  5
2d8
100
AcDbEntity
  8
Layer_1
 62
5
100
AcDbSpline
 70
8
 71
3
 72
8
 73
4
 74
0
 40
0
 40
0
 40
0
 40
0
 40
1
 40
1
 40
1
 40
1
 10
28.705737
 20
94.743391
 30
0.0
 10
29.534172
 20
94.743391
 30
0.0
 10
30.205720
 20
94.071821
 30
0.0
 10
30.205720
 20
93.243391
 30
0.0
  0
LINE
  5
2d9
100
AcDbEntity
  8
Layer_1
 62
5
100
AcDbLine
 10
30.205720
 20
93.243391
 30
0.0
 11
30.205720
 21
93.243391
 31
0.0
  0
ENDSEC
  0
SECTION
  2
OBJECTS
  0
DICTIONARY
  5
C
330
0
100
AcDbDictionary
  3
ACAD_GROUP
350
D
  3
ACAD_MLINESTYLE
350
17
  0
DICTIONARY
  5
D
330
C
100
AcDbDictionary
  0
DICTIONARY
  5
1A
330
C
100
AcDbDictionary
  0
DICTIONARY
  5
17
330
C
100
AcDbDictionary
  3
STANDARD
350
18
  0
DICTIONARY
  5
19
330
C
100
AcDbDictionary
  0
ENDSEC
  0
EOF
